<svg width="18" height="16" viewBox="0 0 18 16" fill="none" xmlns="http://www.w3.org/2000/svg">
<path d="M2.49999 1H15.5C15.644 1.05051 15.7745 1.13331 15.8816 1.24206C15.9887 1.35082 16.0695 1.48264 16.1177 1.62742C16.166 1.77221 16.1805 1.92612 16.1601 2.07737C16.1396 2.22861 16.0849 2.37318 16 2.5L11 8V15L6.99999 12V8L1.99999 2.5C1.91508 2.37318 1.86032 2.22861 1.83991 2.07737C1.81951 1.92612 1.83399 1.77221 1.88225 1.62742C1.93051 1.48264 2.01127 1.35082 2.11835 1.24206C2.22542 1.13331 2.35597 1.05051 2.49999 1Z" stroke="#8197BB" stroke-width="2" stroke-linecap="round" stroke-linejoin="round"/>
</svg>
