<svg width="48" height="48" viewBox="0 0 48 48" fill="none" xmlns="http://www.w3.org/2000/svg">
<path d="M7 15.6438C7 15.6438 7.02299 11.8595 7.12595 10.6197C7.18208 9.94391 7.25281 9.53215 7.31342 9.27919C7.36731 9.05429 7.40813 8.97726 7.41162 8.97068C7.75848 8.30293 8.30328 7.7583 8.97102 7.41143C8.9776 7.40795 9.05427 7.36732 9.27919 7.31342C9.53215 7.25281 9.94391 7.18208 10.6197 7.12595C12.0687 7.00563 14.0044 7 17.1562 7H30.8438C33.9956 7 35.9313 7.00563 37.3803 7.12595C38.0561 7.18208 38.4679 7.25281 38.7208 7.31342C38.9457 7.36731 39.0227 7.40813 39.0293 7.41162C39.6971 7.75848 40.2417 8.30328 40.5886 8.97102C40.592 8.9776 40.6327 9.05427 40.6866 9.27919C40.7472 9.53215 40.8179 9.94391 40.8741 10.6197C40.9689 11.7621 41 17.9426 41 16.4506L48 17.9945V17.1562C48 11.0877 48 8.05342 46.8003 5.74386C45.7893 3.79761 44.2024 2.21072 42.2561 1.19972C39.9466 -1.19209e-07 36.9123 0 30.8438 0H17.1562C11.0877 0 8.05342 -1.19209e-07 5.74386 1.19972C3.79761 2.21072 2.21072 3.79761 1.19972 5.74386C0 8.05342 0 11.0877 0 17.1562V24.8966C0.0605311 25.0347 0.0984884 25.139 0.109219 25.2024L0.11 25.2076C5.62785 26.094 11.0466 27.514 16.29 29.4476C16.7076 29.3324 17.1371 29.2653 17.57 29.2476C18.0371 29.1888 18.5114 29.2604 18.9403 29.4546C19.3692 29.6487 19.736 29.9578 20 30.3476C20.0989 30.4368 20.177 30.5466 20.2289 30.6693C20.2807 30.792 20.305 30.9245 20.3 31.0576L20.88 30.1476C21.0948 29.8494 21.375 29.6042 21.6991 29.4309C22.0232 29.2576 22.3827 29.1607 22.75 29.1476C23.1615 29.1532 23.5658 29.256 23.93 29.4476C24.2502 29.6044 24.5201 29.8477 24.7091 30.1499C24.8982 30.4521 24.999 30.8011 25 31.1576C25 31.2076 24.975 31.2826 24.95 31.3576C24.925 31.4326 24.9 31.5076 24.9 31.5576C25.1414 31.4326 25.4082 31.3642 25.68 31.3576C26.0603 31.428 26.4256 31.5633 26.76 31.7576C27.0537 31.8698 27.2981 32.0824 27.45 32.3576C27.5914 32.6413 27.6892 32.9448 27.74 33.2576C27.7917 33.4983 27.7926 33.7472 27.7427 33.9882C27.6927 34.2293 27.593 34.4573 27.45 34.6576C27.84 34.9576 29.12 35.4576 29.8 34.7576C31.37 33.2576 28.14 31.5576 28.14 31.5576L30.49 32.6576C30.49 32.6576 32.75 33.8576 33.63 32.6576C33.8293 32.3607 33.91 31.9998 33.8563 31.6463C33.8026 31.2927 33.6184 30.9721 33.34 30.7476C32.65 30.2476 30.79 28.9476 30.79 28.9476C31.96 29.4476 33.14 30.0476 34.32 30.6476C35.5 31.2476 36.18 31.0576 36.58 30.7476C36.8441 30.4664 36.9985 30.0998 37.015 29.7144C37.0315 29.3289 36.9091 28.9504 36.67 28.6476C35.89 27.4476 32.55 25.5476 32.55 25.5476C32.55 25.5476 35.3 26.8476 36.08 27.1476C36.0992 27.155 36.1186 27.1625 36.1382 27.17C36.9194 27.4713 38.0913 27.9231 38.54 26.9476C38.6943 26.7231 38.7993 26.4685 38.8481 26.2005C38.8969 25.9326 38.8885 25.6573 38.8233 25.3928C38.7581 25.1283 38.6377 24.8806 38.47 24.666C38.3022 24.4514 38.0909 24.2747 37.85 24.1476C36.28 23.2476 31.77 20.5476 31.77 20.5476C30.9595 20.1456 30.1033 19.8434 29.22 19.6476L25.42 18.9876C25.3069 19.5166 25.1076 20.0234 24.83 20.4876C24.04 22.0876 22.47 23.7876 20.83 23.3876C19.19 22.9876 20.14 20.8876 20.14 20.8876C20.5383 19.887 20.8331 18.8483 21.02 17.7876C21.42 15.2876 22.59 14.9876 22.59 14.9876L23.97 14.3876L23.48 14.0876C23.1721 13.8919 22.8148 13.788 22.45 13.788C22.0852 13.788 21.7279 13.8919 21.42 14.0876L15.42 17.5876L18.26 18.3876C16.9353 18.4244 15.613 18.2557 14.34 17.8876L7 15.6438Z" fill="#DE2E2B"/>
<path d="M24.69 32.7876C24.5 33.0876 24 33.9876 24 33.9876C23.9061 34.1239 23.8422 34.2785 23.8125 34.4413C23.7827 34.6041 23.7879 34.7714 23.8276 34.9321C23.8673 35.0927 23.9406 35.2431 24.0427 35.3734C24.1449 35.5036 24.2734 35.6107 24.42 35.6876C24.5104 35.7709 24.6187 35.8323 24.7367 35.867C24.8546 35.9017 24.9789 35.9087 25.1 35.8876C25.3926 35.8956 25.6765 35.7878 25.89 35.5876C27.16 34.3876 27.75 33.0876 26.48 32.2876C26.3683 32.2033 26.2409 32.1421 26.1052 32.1078C25.9695 32.0735 25.8284 32.0666 25.69 32.0876C25.1247 32.0876 24.9115 32.4311 24.7321 32.7202C24.7179 32.7431 24.7039 32.7656 24.69 32.7876Z" fill="#3073DF"/>
<path d="M21.55 34.6876C21.3153 34.7105 21.0786 34.6761 20.86 34.5876L20.9 34.5576C19.53 34.0576 20.28 32.4876 20.28 32.4876C20.594 31.858 20.955 31.2529 21.36 30.6776C21.5075 30.475 21.6977 30.3072 21.9171 30.1863C22.1366 30.0653 22.38 29.9941 22.63 29.9776C22.9324 29.9951 23.2297 30.0627 23.51 30.1776C24.5569 30.7099 24.1397 31.6437 23.8926 32.1967C23.8612 32.267 23.8326 32.3312 23.81 32.3876C23.8049 32.4005 23.7994 32.4142 23.7936 32.4288C23.5745 32.9792 22.8944 34.6876 21.55 34.6876Z" fill="#3073DF"/>
<path d="M18.3248 33.3236C17.9536 33.4963 17.5494 33.5863 17.14 33.5876L17.18 33.5576C16.1 33.5576 15.86 32.1876 15.86 32.1876C15.7549 31.9341 15.7194 31.6572 15.7572 31.3854C15.795 31.1137 15.9047 30.857 16.075 30.6418C16.2452 30.4267 16.4699 30.2609 16.7257 30.1617C16.9815 30.0625 17.2592 30.0335 17.53 30.0776C20.29 30.0776 19.49 32.1876 19.29 32.5876C19.0253 32.8998 18.696 33.151 18.3248 33.3236Z" fill="#3073DF"/>
<path d="M14.78 29.9776C14.19 30.9776 13.31 31.5876 12.52 31.2876L12.56 31.2576C12.1499 31.009 11.8383 30.6264 11.678 30.1744C11.5176 29.7225 11.5183 29.229 11.68 28.7776C11.68 28.7276 11.68 28.7026 11.6925 28.6901C11.705 28.6776 11.73 28.6776 11.78 28.6776C12.72 29.0776 13.7 29.4776 14.78 29.8776V29.9776Z" fill="#3073DF"/>
<path d="M48 19.3203L34.45 16.3476C34.4235 16.3476 34.3981 16.3581 34.3793 16.3769C34.3605 16.3956 34.35 16.421 34.35 16.4476C34.5938 16.8417 34.7146 17.2997 34.6967 17.7628C34.6789 18.226 34.5234 18.6733 34.25 19.0476C34.3704 18.5825 34.3353 18.0908 34.15 17.6476C33.9628 17.1707 33.6069 16.7793 33.15 16.5476L28.74 14.0476C28.3023 13.7312 27.7945 13.5253 27.26 13.4476C26.9075 13.7385 26.513 13.9745 26.09 14.1476C25.112 14.6942 24.0921 15.1624 23.04 15.5476C22.36 15.8476 21.96 16.4476 21.77 17.8476C21.5406 19.0089 21.2059 20.1469 20.77 21.2476C20.77 21.2476 20.08 22.9476 21.45 22.6476C23.12 22.3476 24.2 20.0476 24.79 18.7476C24.8797 18.5849 24.9356 18.4058 24.9545 18.2209C24.9733 18.0361 24.9546 17.8494 24.8995 17.672C24.8444 17.4946 24.754 17.3301 24.6338 17.1884C24.5136 17.0468 24.3661 16.9308 24.2 16.8476C25.2 17.0476 25.57 17.5476 25.57 18.1476C25.57 18.1741 25.5805 18.1995 25.5993 18.2183C25.6181 18.237 25.6435 18.2476 25.67 18.2476L29.5 18.9476C30.4642 19.1319 31.3926 19.4695 32.25 19.9476L38.33 23.5476C38.9787 23.7202 40.003 24.6189 41 25.6367V30.8438C41 33.9956 40.9944 35.9313 40.8741 37.3803C40.8179 38.0561 40.7472 38.4679 40.6866 38.7208C40.6327 38.9457 40.592 39.0224 40.5886 39.029C40.2417 39.6967 39.6971 40.2415 39.0293 40.5884C39.0227 40.5919 38.9457 40.6327 38.7208 40.6866C38.4679 40.7472 38.0561 40.8179 37.3803 40.8741C35.9313 40.9944 33.9956 41 30.8438 41H17.1562C14.0044 41 12.0687 40.9944 10.6197 40.8741C9.94391 40.8179 9.53215 40.7472 9.27919 40.6866C9.05444 40.6327 8.97771 40.5921 8.97104 40.5886C8.30329 40.2417 7.75848 39.6971 7.41162 39.0293C7.40813 39.0227 7.36732 38.9457 7.31342 38.7208C7.25281 38.4679 7.18208 38.0561 7.12595 37.3803C7.00563 35.9313 7 33.9956 7 30.8438V28.0061C4.68899 27.4317 2.35364 26.954 0 26.5746V30.8438C0 36.9123 0 39.9466 1.19972 42.2561C2.21072 44.2024 3.79761 45.7893 5.74386 46.8003C8.05342 48 11.0877 48 17.1562 48H30.8438C36.9123 48 39.9466 48 42.2561 46.8003C44.2024 45.7893 45.7893 44.2024 46.8003 42.2561C48 39.9466 48 36.9123 48 30.8438C48 27.6693 48 22.4948 48 19.3203Z" fill="#3073DF"/>
</svg>
