<svg width="48" height="49" viewBox="0 0 48 49" fill="none" xmlns="http://www.w3.org/2000/svg">
<path d="M24 35C24 35 24.5 34.1 24.69 33.8C24.88 33.5 25.08 33.1 25.69 33.1C25.8283 33.079 25.9695 33.0859 26.1052 33.1203C26.2408 33.1546 26.3683 33.2157 26.48 33.3C27.75 34.1 27.16 35.4 25.89 36.6C25.6765 36.8003 25.3926 36.9081 25.1 36.9C24.9789 36.9212 24.8545 36.9141 24.7366 36.8794C24.6187 36.8448 24.5103 36.7834 24.42 36.7C24.2734 36.6232 24.1448 36.5161 24.0427 36.3858C23.9406 36.2556 23.8672 36.1052 23.8276 35.9445C23.7879 35.7838 23.7827 35.6166 23.8124 35.4538C23.8421 35.291 23.9061 35.1363 24 35ZM20.86 35.6C21.0785 35.6886 21.3153 35.7229 21.55 35.7C22.93 35.7 23.61 33.9 23.81 33.4C24.01 32.9 24.69 31.79 23.51 31.19C23.2297 31.0752 22.9323 31.0076 22.63 30.99C22.3799 31.0065 22.1366 31.0778 21.9171 31.1987C21.6976 31.3197 21.5074 31.4874 21.36 31.69C20.955 32.2654 20.594 32.8704 20.28 33.5C20.28 33.5 19.53 35.07 20.9 35.57L20.86 35.6ZM17.14 34.6C17.5493 34.5988 17.9536 34.5087 18.3248 34.3361C18.6959 34.1634 19.0253 33.9123 19.29 33.6C19.49 33.2 20.29 31.09 17.53 31.09C17.2592 31.0459 16.9815 31.075 16.7257 31.1742C16.4699 31.2734 16.2452 31.4391 16.0749 31.6543C15.9046 31.8694 15.7949 32.1261 15.7571 32.3979C15.7194 32.6697 15.7549 32.9466 15.86 33.2C15.86 33.2 16.1 34.57 17.18 34.57L17.14 34.6ZM12.52 32.3C13.31 32.6 14.19 31.99 14.78 30.99V30.89C13.7 30.49 12.72 30.09 11.78 29.69C11.68 29.69 11.68 29.69 11.68 29.79C11.5183 30.2415 11.5176 30.7349 11.6779 31.1869C11.8383 31.6388 12.1499 32.0214 12.56 32.27L12.52 32.3ZM47.9 22.36C47.9 21.65 47.78 20.96 47.67 20.27L34.45 17.36C34.4235 17.36 34.398 17.3706 34.3793 17.3893C34.3605 17.4081 34.35 17.4335 34.35 17.46C34.5938 17.8542 34.7145 18.3121 34.6967 18.7753C34.6789 19.2384 34.5234 19.6857 34.25 20.06C34.3704 19.595 34.3353 19.1033 34.15 18.66C33.9627 18.1832 33.6069 17.7917 33.15 17.56L28.74 15.06C28.3022 14.7436 27.7945 14.5378 27.26 14.46C26.9074 14.7509 26.513 14.9869 26.09 15.16C25.112 15.7067 24.0921 16.1748 23.04 16.56C22.36 16.86 21.96 17.46 21.77 18.86C21.5405 20.0214 21.2058 21.1594 20.77 22.26C20.77 22.26 20.08 23.96 21.45 23.66C23.12 23.36 24.2 21.06 24.79 19.76C24.8797 19.5973 24.9356 19.4182 24.9544 19.2334C24.9732 19.0486 24.9545 18.8618 24.8994 18.6844C24.8443 18.507 24.754 18.3425 24.6338 18.2009C24.5136 18.0592 24.3661 17.9433 24.2 17.86C25.2 18.06 25.57 18.56 25.57 19.16C25.57 19.1865 25.5805 19.212 25.5993 19.2307C25.618 19.2495 25.6435 19.26 25.67 19.26L29.5 19.96C30.4642 20.1443 31.3926 20.482 32.25 20.96L38.33 24.56C39.42 24.85 41.57 27.19 42.87 28.7C40 37.47 31.57 44 22.18 44C17.8122 44.0911 13.5636 42.5718 10.244 39.7317C6.92443 36.8916 4.76595 32.9293 4.17998 28.6L0.289978 27.73C1.22658 33.7002 4.38094 39.0972 9.12303 42.8432C13.8651 46.5892 19.8458 48.4084 25.8706 47.9374C31.8954 47.4663 37.5207 44.7398 41.623 40.3024C45.7253 35.8649 48.0026 30.0432 48 24C48 23.44 48 22.88 47.94 22.33L47.9 22.36Z" fill="#3073DF"/>
<path d="M25.82 3.99997C29.8886 3.92477 33.86 5.24667 37.0719 7.74522C40.2838 10.2438 42.542 13.7679 43.47 17.73L47.19 17.83C45.6897 12.2024 42.1942 7.31245 37.3551 4.07155C32.516 0.830656 26.6635 -0.540008 20.8885 0.215057C15.1136 0.970122 9.81021 3.79939 5.96701 8.17548C2.12382 12.5516 0.00304207 18.1759 0 24C0 24.75 0 25.49 0.11 26.22C5.62785 27.1063 11.0466 28.5263 16.29 30.46C16.7076 30.3447 17.1371 30.2776 17.57 30.26C18.0371 30.2011 18.5114 30.2728 18.9403 30.4669C19.3692 30.6611 19.736 30.9702 20 31.36C20.0989 31.4492 20.177 31.559 20.2289 31.6816C20.2807 31.8043 20.305 31.9369 20.3 32.07L20.88 31.16C21.0948 30.8617 21.375 30.6166 21.6991 30.4432C22.0232 30.2699 22.3827 30.173 22.75 30.16C23.1615 30.1655 23.5658 30.2683 23.93 30.46C24.2502 30.6168 24.5201 30.86 24.7092 31.1622C24.8982 31.4644 24.999 31.8135 25 32.17C25 32.27 24.9 32.47 24.9 32.57C25.1414 32.4449 25.4082 32.3765 25.68 32.37C26.0603 32.4403 26.4256 32.5757 26.76 32.77C27.0537 32.8821 27.2981 33.0947 27.45 33.37C27.5914 33.6537 27.6892 33.9571 27.74 34.27C27.7917 34.5107 27.7926 34.7595 27.7426 35.0006C27.6927 35.2416 27.593 35.4696 27.45 35.67C27.84 35.97 29.12 36.47 29.8 35.77C31.37 34.27 28.14 32.57 28.14 32.57L30.49 33.67C30.49 33.67 32.75 34.87 33.63 33.67C33.8292 33.373 33.91 33.0122 33.8563 32.6586C33.8026 32.305 33.6184 31.9844 33.34 31.76C32.65 31.26 30.79 29.96 30.79 29.96C31.96 30.46 33.14 31.06 34.32 31.66C35.5 32.26 36.18 32.07 36.58 31.76C36.8441 31.4788 36.9985 31.1121 37.015 30.7267C37.0315 30.3413 36.9091 29.9627 36.67 29.66C35.89 28.46 32.55 26.56 32.55 26.56C32.55 26.56 35.3 27.86 36.08 28.16C36.86 28.46 38.08 28.96 38.54 27.96C38.6943 27.7355 38.7993 27.4809 38.8481 27.2129C38.8969 26.9449 38.8885 26.6696 38.8233 26.4051C38.7581 26.1407 38.6377 25.893 38.4699 25.6784C38.3022 25.4638 38.0909 25.2871 37.85 25.16C36.28 24.26 31.77 21.56 31.77 21.56C30.9595 21.158 30.1033 20.8558 29.22 20.66L25.42 20C25.307 20.529 25.1076 21.0357 24.83 21.5C24.04 23.1 22.47 24.8 20.83 24.4C19.19 24 20.14 21.9 20.14 21.9C20.5383 20.8994 20.8332 19.8606 21.02 18.8C21.42 16.3 22.59 16 22.59 16L23.97 15.4L23.48 15.1C23.1721 14.9043 22.8148 14.8003 22.45 14.8003C22.0852 14.8003 21.7279 14.9043 21.42 15.1L15.42 18.6L18.26 19.4C16.9354 19.4367 15.613 19.2681 14.34 18.9L6.26 16.43C8.06548 12.7625 10.8456 9.66265 14.2957 7.47016C17.7459 5.27766 21.7329 4.07709 25.82 3.99997Z" fill="#DE2E2B"/>
</svg>
