<svg width="24" height="24" viewBox="0 0 24 24" fill="none" xmlns="http://www.w3.org/2000/svg">
<path d="M8.42928 8.5C7.54516 9.40188 7 10.6373 7 12C7 13.3627 7.54516 14.5981 8.42928 15.5M15.5707 8.5C16.4548 9.40188 17 10.6373 17 12C17 13.3627 16.4548 14.5981 15.5707 15.5M5.29168 6C3.86656 7.59227 3 9.69494 3 12C3 14.3051 3.86656 16.4077 5.29168 18M18.7083 6C20.1334 7.59227 21 9.69494 21 12C21 14.3051 20.1334 16.4077 18.7083 18M13 12C13 12.5523 12.5523 13 12 13C11.4477 13 11 12.5523 11 12C11 11.4477 11.4477 11 12 11C12.5523 11 13 11.4477 13 12Z" stroke="currentColor" stroke-width="var(--icon-stroke-width)" stroke-linecap="round"/>
</svg>
