<svg width="20" height="20" viewBox="0 0 20 20" fill="none" xmlns="http://www.w3.org/2000/svg">
<path d="M13.1111 10.009C13.1111 11.7272 11.7182 13.1201 9.99996 13.1201C8.28174 13.1201 6.88885 11.7272 6.88885 10.009C6.88885 8.29074 8.28174 6.89785 9.99996 6.89785C11.7182 6.89785 13.1111 8.29074 13.1111 10.009ZM13.1111 10.009L13.1111 11.1757C13.1111 11.6914 13.316 12.1859 13.6806 12.5506C14.0453 12.9152 14.5399 13.1201 15.0555 13.1201C15.5712 13.1201 16.0658 12.9152 16.4305 12.5506C16.7951 12.1859 17 11.6914 17 11.1757V10.009C17.0019 8.50485 16.5193 7.04009 15.6236 5.8317C14.728 4.62331 13.4669 3.73556 12.0272 3.29996C10.5875 2.86437 9.04579 2.90409 7.63045 3.41325C6.2151 3.92242 5.00141 4.87394 4.16916 6.12685C3.33691 7.37977 2.93037 8.86744 3.00976 10.3695C3.08916 11.8715 3.65026 13.3081 4.60996 14.4663C5.56966 15.6245 6.8769 16.4427 8.33804 16.7998C9.79917 17.157 11.3365 17.0339 12.7222 16.449" stroke="white" stroke-opacity="0.87" stroke-width="2" stroke-linecap="round" stroke-linejoin="round"/>
</svg>
