<svg width="24" height="24" viewBox="0 0 24 24" fill="none" xmlns="http://www.w3.org/2000/svg">
<path d="M16 5C15.4477 5 15 5.44772 15 6C15 6.55228 15.4477 7 16 7V5ZM16 18H17H16ZM15 4V3V4ZM4 5H3H4ZM7 20V21V20ZM8 7C7.44772 7 7 7.44772 7 8C7 8.55228 7.44772 9 8 9V7ZM12 9C12.5523 9 13 8.55228 13 8C13 7.44772 12.5523 7 12 7V9ZM8 11C7.44772 11 7 11.4477 7 12C7 12.5523 7.44772 13 8 13V11ZM12 13C12.5523 13 13 12.5523 13 12C13 11.4477 12.5523 11 12 11V13ZM8 15C7.44772 15 7 15.4477 7 16C7 16.5523 7.44772 17 8 17V15ZM12 17C12.5523 17 13 16.5523 13 16C13 15.4477 12.5523 15 12 15V17ZM16 7H19V5H16V7ZM19 7L19 7L20.4142 5.58579C20.0391 5.21071 19.5304 5 19 5V7ZM19 7L19 7H21C21 6.46957 20.7893 5.96086 20.4142 5.58579L19 7ZM19 7V18H21V7H19ZM19 18C19 18.2652 18.8946 18.5196 18.7071 18.7071L20.1213 20.1213C20.6839 19.5587 21 18.7957 21 18H19ZM18.7071 18.7071C18.5196 18.8946 18.2652 19 18 19V21C18.7957 21 19.5587 20.6839 20.1213 20.1213L18.7071 18.7071ZM18 19C17.7348 19 17.4804 18.8946 17.2929 18.7071L15.8787 20.1213C16.4413 20.6839 17.2043 21 18 21V19ZM17.2929 18.7071C17.1054 18.5196 17 18.2652 17 18H15C15 18.7957 15.3161 19.5587 15.8787 20.1213L17.2929 18.7071ZM17 18V5H15V18H17ZM17 5C17 4.46957 16.7893 3.96086 16.4142 3.58579L15 5V5H17ZM16.4142 3.58579C16.0391 3.21071 15.5304 3 15 3V5V5L16.4142 3.58579ZM15 3H5V5H15V3ZM5 3C4.46957 3 3.96086 3.21071 3.58579 3.58579L5 5L5 5V3ZM3.58579 3.58579C3.21071 3.96086 3 4.46957 3 5H5L5 5L3.58579 3.58579ZM3 5V17H5V5H3ZM3 17C3 18.0609 3.42143 19.0783 4.17157 19.8284L5.58579 18.4142C5.21071 18.0391 5 17.5304 5 17H3ZM4.17157 19.8284C4.92172 20.5786 5.93913 21 7 21V19C6.46957 19 5.96086 18.7893 5.58579 18.4142L4.17157 19.8284ZM7 21H18V19H7V21ZM8 9H12V7H8V9ZM8 13H12V11H8V13ZM8 17H12V15H8V17Z" fill="currentColor"/>
</svg>
