<svg width="24" height="24" viewBox="0 0 24 24" fill="none" xmlns="http://www.w3.org/2000/svg">
<path d="M13.5 19.5C13.5 18.6716 12.8284 18 12 18C11.1716 18 10.5 18.6716 10.5 19.5C10.5 20.3284 11.1716 21 12 21C12.8284 21 13.5 20.3284 13.5 19.5Z" stroke="currentColor" stroke-width="var(--icon-stroke-width)"/>
<path d="M17.5 12C17.5 11.1716 16.8284 10.5 16 10.5C15.1716 10.5 14.5 11.1716 14.5 12C14.5 12.8284 15.1716 13.5 16 13.5C16.8284 13.5 17.5 12.8284 17.5 12Z" stroke="currentColor" stroke-width="var(--icon-stroke-width)"/>
<path d="M9.5 12C9.5 11.1716 8.82843 10.5 8 10.5C7.17157 10.5 6.5 11.1716 6.5 12C6.5 12.8284 7.17157 13.5 8 13.5C8.82843 13.5 9.5 12.8284 9.5 12Z" stroke="currentColor" stroke-width="var(--icon-stroke-width)"/>
<path d="M6 4.5C6 3.67157 5.32843 3 4.5 3C3.67157 3 3 3.67157 3 4.5C3 5.32843 3.67157 6 4.5 6C5.32843 6 6 5.32843 6 4.5Z" stroke="currentColor" stroke-width="var(--icon-stroke-width)"/>
<path d="M21 4.5C21 3.67157 20.3284 3 19.5 3C18.6716 3 18 3.67157 18 4.5C18 5.32843 18.6716 6 19.5 6C20.3284 6 21 5.32843 21 4.5Z" stroke="currentColor" stroke-width="var(--icon-stroke-width)"/>
<path d="M13.5 4.5C13.5 3.67157 12.8284 3 12 3C11.1716 3 10.5 3.67157 10.5 4.5C10.5 5.32843 11.1716 6 12 6C12.8284 6 13.5 5.32843 13.5 4.5Z" stroke="currentColor" stroke-width="var(--icon-stroke-width)"/>
</svg>
