<svg width="24" height="24" viewBox="0 0 24 24" fill="none" xmlns="http://www.w3.org/2000/svg">
<path d="M7.5 18.3053C4.80989 17.4075 3 15.7295 3 13.8076V7.19225C3 4.32461 7.02944 1.99994 12 1.99994C16.9706 1.99994 21 4.32461 21 7.19225V13.8076C21 16.6753 16.9706 18.9999 12 18.9999L9 21.9999M11.7098 7.75786C12.3602 7.83189 12.991 8.11833 13.4898 8.61718C13.9887 9.11603 14.2751 9.74686 14.3492 10.3973M11.8082 5.03851C13.1754 4.96572 14.5668 5.4515 15.6112 6.49586C16.6555 7.54022 17.1413 8.93164 17.0685 10.2989M9.60064 9.67776C9.60064 8.97066 8.89358 7.6007 7.83287 7.20289C7.18997 6.96178 6.22813 7.54514 5.95466 8.19723C4.73856 11.097 11.0097 17.3683 13.9095 16.1522C14.5616 15.8787 15.145 14.9169 14.9039 14.274C14.5061 13.2132 13.1361 12.5062 12.429 12.5062" stroke="currentColor" stroke-width="var(--icon-stroke-width)" stroke-linejoin="round"/>
</svg>
