<svg width="24" height="24" viewBox="0 0 24 24" fill="none" xmlns="http://www.w3.org/2000/svg">
<path d="M11 4L11.9162 3.59918C11.7569 3.23519 11.3973 3 11 3C10.6027 3 10.2431 3.23519 10.0838 3.59918L11 4ZM17.0838 20.4008C17.3052 20.9068 17.8948 21.1375 18.4008 20.9162C18.9068 20.6948 19.1375 20.1052 18.9162 19.5992L17.0838 20.4008ZM3.08384 19.5992C2.86248 20.1052 3.0932 20.6948 3.59918 20.9162C4.10516 21.1375 4.69479 20.9068 4.91616 20.4008L3.08384 19.5992ZM21 7C21.5523 7 22 6.55228 22 6C22 5.44772 21.5523 5 21 5V7ZM17 5C16.4477 5 16 5.44772 16 6C16 6.55228 16.4477 7 17 7V5ZM18 8C18 8.55228 18.4477 9 19 9C19.5523 9 20 8.55228 20 8H18ZM20 4C20 3.44772 19.5523 3 19 3C18.4477 3 18 3.44772 18 4H20ZM21 5H19V7H21V5ZM19 5H17V7H19V5ZM20 8V6H18V8H20ZM20 6V4H18V6H20ZM4.91616 20.4008L7.10366 15.4008L5.27134 14.5992L3.08384 19.5992L4.91616 20.4008ZM7.10366 15.4008L11.9162 4.40082L10.0838 3.59918L5.27134 14.5992L7.10366 15.4008ZM10.0838 4.40082L14.8963 15.4008L16.7287 14.5992L11.9162 3.59918L10.0838 4.40082ZM14.8963 15.4008L17.0838 20.4008L18.9162 19.5992L16.7287 14.5992L14.8963 15.4008ZM6.1875 16H15.8125V14H6.1875V16Z" fill="currentColor"/>
</svg>
