<svg width="24" height="24" viewBox="0 0 24 24" fill="none" xmlns="http://www.w3.org/2000/svg">
<path d="M3 11C5.20914 11 7 9.20914 7 7C7 4.79086 5.20914 3 3 3M9.00006 21V19C9.00006 17.9391 8.57863 16.9217 7.82849 16.1716C7.07834 15.4214 6.06092 15 5.00006 15H3.00006M10 3.13C10.8604 3.35031 11.623 3.85071 12.1676 4.55232C12.7122 5.25392 13.0078 6.11683 13.0078 7.005C13.0078 7.89318 12.7122 8.75608 12.1676 9.45769C11.623 10.1593 10.8604 10.6597 10 10.88M15 21V19C14.9949 18.1172 14.6979 17.2608 14.1553 16.5644C13.6126 15.868 12.8548 15.3707 12 15.15M15 12H21M18 9V15" stroke="currentColor" stroke-width="var(--icon-stroke-width)" stroke-linecap="round" stroke-linejoin="round"/>
</svg>
