<svg width="24" height="24" viewBox="0 0 24 24" fill="none" xmlns="http://www.w3.org/2000/svg">
<path d="M16 12C16 14.2091 14.2091 16 12 16C9.79086 16 8 14.2091 8 12C8 9.79083 9.79086 7.99997 12 7.99997C14.2091 7.99997 16 9.79083 16 12ZM16 12V13.5C16 14.163 16.2634 14.7989 16.7322 15.2677C17.2011 15.7366 17.837 16 18.5 16C19.163 16 19.7989 15.7366 20.2678 15.2677C20.7366 14.7989 21 14.163 21 13.5V12C21.0025 10.0661 20.382 8.18281 19.2304 6.62916C18.0788 5.07551 16.4574 3.93412 14.6064 3.37407C12.7554 2.81402 10.7732 2.86509 8.95343 3.51973C7.13371 4.17437 5.57324 5.39775 4.50321 7.00865C3.43317 8.61954 2.91047 10.5323 3.01255 12.4635C3.11463 14.3947 3.83605 16.2416 5.06995 17.7307C6.30385 19.2198 7.98459 20.2719 9.86319 20.7311C11.7418 21.1902 13.7183 21.032 15.5 20.28" stroke="currentColor" stroke-width="var(--icon-stroke-width)" stroke-linecap="round" stroke-linejoin="round"/>
</svg>
