<svg width="24" height="24" viewBox="0 0 24 24" fill="none" xmlns="http://www.w3.org/2000/svg">
<path d="M12.0001 21L11.2964 21.7105C11.6861 22.0965 12.314 22.0965 12.7037 21.7105L12.0001 21ZM4.50006 13.572L5.20377 12.8615L5.19746 12.8553L4.50006 13.572ZM3.46121 7.86334L4.36638 8.28839L3.46121 7.86334ZM4.69354 6.22658L4.03484 5.47418H4.03484L4.69354 6.22658ZM10.4669 5.64691L10.9629 4.77857L10.9629 4.77857L10.4669 5.64691ZM12.0001 7.006L11.1975 7.60252C11.3855 7.85558 11.682 8.00512 11.9973 8.006C12.3126 8.00687 12.6098 7.85899 12.7993 7.60698L12.0001 7.006ZM13.5352 5.6586L14.0274 6.52906L13.5352 5.6586ZM17.5128 5.24639L17.2095 6.19929L17.5128 5.24639ZM19.2916 6.25036L19.9507 5.49826V5.49826L19.2916 6.25036ZM18.7993 12.8646C18.4053 13.2516 18.3996 13.8847 18.7866 14.2787C19.1736 14.6727 19.8068 14.6784 20.2008 14.2914L18.7993 12.8646ZM17.2255 17.2322C17.6179 16.8435 17.621 16.2104 17.2323 15.818C16.8437 15.4256 16.2105 15.4225 15.8181 15.8112L17.2255 17.2322ZM6.07583 6.47473C6.561 6.21085 6.74038 5.60362 6.47649 5.11846C6.21261 4.6333 5.60538 4.45392 5.12022 4.7178L6.07583 6.47473ZM9.50185 4.18296C8.96746 4.04352 8.42121 4.3637 8.28178 4.8981C8.14235 5.43249 8.46253 5.97874 8.99692 6.11817L9.50185 4.18296ZM20.2037 14.2825C20.5961 13.8939 20.5992 13.2607 20.2106 12.8683C19.8219 12.4759 19.1888 12.4729 18.7964 12.8615L20.2037 14.2825ZM17.8732 13.7758C17.4808 14.1644 17.4778 14.7976 17.8664 15.19C18.2551 15.5824 18.8882 15.5854 19.2806 15.1968L17.8732 13.7758ZM3.70716 2.29289C3.31664 1.90237 2.68347 1.90237 2.29295 2.29289C1.90243 2.68342 1.90243 3.31658 2.29295 3.70711L3.70716 2.29289ZM20.2929 21.7071C20.6835 22.0976 21.3166 22.0976 21.7072 21.7071C22.0977 21.3166 22.0977 20.6834 21.7072 20.2929L20.2929 21.7071ZM12.7037 20.2895L5.20374 12.8615L3.79637 14.2825L11.2964 21.7105L12.7037 20.2895ZM5.19746 12.8553C4.8017 12.4702 4.48997 12.0073 4.2819 11.4958L2.42931 12.2494C2.74143 13.0167 3.20902 13.711 3.80266 14.2887L5.19746 12.8553ZM4.2819 11.4958C4.07382 10.9843 3.97391 10.4353 3.98845 9.88327L1.98914 9.8306C1.96733 10.6586 2.1172 11.4822 2.42931 12.2494L4.2819 11.4958ZM3.98845 9.88327C4.00299 9.33125 4.13167 8.78823 4.36638 8.28839L2.55605 7.43829C2.20397 8.18804 2.01095 9.00258 1.98914 9.8306L3.98845 9.88327ZM4.36638 8.28839C4.6011 7.78855 4.93677 7.34272 5.35225 6.97898L4.03484 5.47418C3.41162 6.01979 2.90812 6.68853 2.55605 7.43829L4.36638 8.28839ZM9.97096 6.51524C10.4505 6.78912 10.8681 7.15932 11.1975 7.60252L12.8027 6.40948C12.3086 5.74468 11.6822 5.18939 10.9629 4.77857L9.97096 6.51524ZM12.7993 7.60698C13.1301 7.16699 13.5482 6.80003 14.0274 6.52906L13.0429 4.78815C12.3242 5.19461 11.697 5.74505 11.2008 6.40502L12.7993 7.60698ZM14.0274 6.52906C14.5066 6.25809 15.0365 6.08894 15.5841 6.03219L15.3779 4.04285C14.5566 4.12796 13.7617 4.38169 13.0429 4.78815L14.0274 6.52906ZM15.5841 6.03219C16.1316 5.97545 16.685 6.03234 17.2095 6.19929L17.8161 4.29349C17.0293 4.04306 16.1992 3.95773 15.3779 4.04285L15.5841 6.03219ZM17.2095 6.19929C17.7341 6.36625 18.2185 6.63968 18.6326 7.00247L19.9507 5.49826C19.3296 4.95407 18.6029 4.54393 17.8161 4.29349L17.2095 6.19929ZM18.6326 7.00247C19.0466 7.36526 19.3813 7.8096 19.6157 8.30769L21.4253 7.45609C21.0737 6.70896 20.5717 6.04245 19.9507 5.49826L18.6326 7.00247ZM19.6157 8.30769C19.8501 8.80578 19.9791 9.34688 19.9948 9.89715L21.994 9.84027C21.9705 9.01488 21.7769 8.20322 21.4253 7.45609L19.6157 8.30769ZM19.9948 9.89715C20.0104 10.4474 19.9123 10.995 19.7066 11.5056L21.5618 12.2529C21.8703 11.487 22.0174 10.6657 21.994 9.84027L19.9948 9.89715ZM19.7066 11.5056C19.5009 12.0162 19.192 12.4788 18.7993 12.8646L20.2008 14.2914C20.7899 13.7128 21.2532 13.0188 21.5618 12.2529L19.7066 11.5056ZM15.8181 15.8112L11.2964 20.2895L12.7037 21.7105L17.2255 17.2322L15.8181 15.8112ZM5.35225 6.97898C5.57471 6.78423 5.81747 6.61526 6.07583 6.47473L5.12022 4.7178C4.73268 4.92859 4.36853 5.18204 4.03484 5.47418L5.35225 6.97898ZM8.99692 6.11817C9.33683 6.20686 9.66442 6.34016 9.97096 6.51524L10.9629 4.77857C10.5031 4.51594 10.0117 4.31599 9.50185 4.18296L8.99692 6.11817ZM18.7964 12.8615L17.8732 13.7758L19.2806 15.1968L20.2037 14.2825L18.7964 12.8615ZM2.29295 3.70711L20.2929 21.7071L21.7072 20.2929L3.70716 2.29289L2.29295 3.70711Z" fill="currentColor"/>
</svg>
