<svg width="24" height="24" viewBox="0 0 24 24" fill="none" xmlns="http://www.w3.org/2000/svg">
<path d="M8 10C8.55228 10 9 9.55228 9 9C9 8.44772 8.55228 8 8 8V10ZM16 8C15.4477 8 15 8.44772 15 9C15 9.55228 15.4477 10 16 10V8ZM14.2929 5.70711C14.6834 6.09763 15.3166 6.09763 15.7071 5.70711C16.0976 5.31658 16.0976 4.68342 15.7071 4.29289L14.2929 5.70711ZM12 2L12.7071 1.29289C12.3166 0.902369 11.6834 0.902369 11.2929 1.29289L12 2ZM8.29289 4.29289C7.90237 4.68342 7.90237 5.31658 8.29289 5.70711C8.68342 6.09763 9.31658 6.09763 9.70711 5.70711L8.29289 4.29289ZM11 14C11 14.5523 11.4477 15 12 15C12.5523 15 13 14.5523 13 14H11ZM18 11V19H20V11H18ZM17 20H7V22H17V20ZM6 19V11H4V19H6ZM7 10H8V8H7V10ZM16 10H17V8H16V10ZM7 20C6.44772 20 6 19.5523 6 19H4C4 20.6569 5.34315 22 7 22V20ZM18 19C18 19.5523 17.5523 20 17 20V22C18.6569 22 20 20.6569 20 19H18ZM20 11C20 9.34315 18.6569 8 17 8V10C17.5523 10 18 10.4477 18 11H20ZM6 11C6 10.4477 6.44772 10 7 10V8C5.34315 8 4 9.34315 4 11H6ZM15.7071 4.29289L12.7071 1.29289L11.2929 2.70711L14.2929 5.70711L15.7071 4.29289ZM11.2929 1.29289L8.29289 4.29289L9.70711 5.70711L12.7071 2.70711L11.2929 1.29289ZM11 2V14H13V2H11Z" fill="currentColor"/>
</svg>
