<svg width="24" height="24" viewBox="0 0 24 24" fill="none" xmlns="http://www.w3.org/2000/svg">
<path d="M5 10C5 11.8565 5.7375 13.637 7.05025 14.9497C8.36301 16.2625 10.1435 17 12 17M12 17C13.8565 17 15.637 16.2625 16.9497 14.9497C18.2625 13.637 19 11.8565 19 10M12 17V21M8 21H16M12 2C13.6569 2 15 3.34315 15 5V10C15 11.6569 13.6569 13 12 13C10.3431 13 9 11.6569 9 10V5C9 3.34315 10.3431 2 12 2Z" stroke="currentColor" stroke-width="var(--icon-stroke-width)" stroke-linecap="round" stroke-linejoin="round"/>
</svg>
