<svg width="20" height="20" viewBox="0 0 20 20" fill="none" xmlns="http://www.w3.org/2000/svg">
<path d="M7 16C6.44772 16 6 16.4477 6 17C6 17.5523 6.44772 18 7 18V16ZM13 18C13.5523 18 14 17.5523 14 17C14 16.4477 13.5523 16 13 16V18ZM16 9C16 8.44772 15.5523 8 15 8C14.4477 8 14 8.44772 14 9H16ZM6 9C6 8.44772 5.55228 8 5 8C4.44772 8 4 8.44772 4 9H6ZM11 5V9H13V5H11ZM9 9V5H7V9H9ZM10 10C9.44772 10 9 9.55228 9 9H7C7 10.6569 8.34315 12 10 12V10ZM11 9C11 9.55228 10.5523 10 10 10V12C11.6569 12 13 10.6569 13 9H11ZM10 4C10.5523 4 11 4.44772 11 5H13C13 3.34315 11.6569 2 10 2V4ZM10 2C8.34315 2 7 3.34315 7 5H9C9 4.44772 9.44772 4 10 4V2ZM10 13C7.79086 13 6 11.2091 6 9H4C4 12.3137 6.68629 15 10 15V13ZM14 9C14 11.2091 12.2091 13 10 13V15C13.3137 15 16 12.3137 16 9H14ZM7 18H10V16H7V18ZM10 18H13V16H10V18ZM11 17V14H9V17H11Z" fill="currentColor"/>
</svg>
