<svg width="20" height="20" viewBox="0 0 20 20" fill="none" xmlns="http://www.w3.org/2000/svg">
<path d="M5.99997 9C5.99997 8.44772 5.55226 8 4.99997 8C4.44769 8 3.99997 8.44772 3.99997 9H5.99997ZM6.99997 16C6.44769 16 5.99997 16.4477 5.99997 17C5.99997 17.5523 6.44769 18 6.99997 18V16ZM12.5 18C13.0523 18 13.5 17.5523 13.5 17C13.5 16.4477 13.0523 16 12.5 16V18ZM7.13464 4.10945C6.97083 4.63688 7.26561 5.19724 7.79304 5.36105C8.32047 5.52486 8.88084 5.23008 9.04464 4.70265L7.13464 4.10945ZM11 8.33984C11 8.89213 11.4477 9.33984 12 9.33984C12.5523 9.33984 13 8.89213 13 8.33984H11ZM8.99997 8.58594C8.99997 8.03365 8.55226 7.58594 7.99997 7.58594C7.44769 7.58594 6.99997 8.03365 6.99997 8.58594H8.99997ZM10.5659 11.9465C11.1084 11.8427 11.464 11.3189 11.3602 10.7764C11.2564 10.234 10.7326 9.87835 10.1901 9.98213L10.5659 11.9465ZM16 9C16 8.44772 15.5523 8 15 8C14.4477 8 14 8.44772 14 9H16ZM13.6799 10.5711C13.4627 11.0789 13.6984 11.6666 14.2062 11.8838C14.714 12.1009 15.3017 11.8653 15.5188 11.3575L13.6799 10.5711ZM13.1994 14.0765C13.6664 13.7817 13.806 13.1641 13.5112 12.6971C13.2163 12.2301 12.5987 12.0905 12.1317 12.3854L13.1994 14.0765ZM4.12129 3.29289C3.73077 2.90237 3.0976 2.90237 2.70708 3.29289C2.31655 3.68342 2.31655 4.31658 2.70708 4.70711L4.12129 3.29289ZM15.435 17.435C15.8255 17.8256 16.4587 17.8256 16.8492 17.435C17.2397 17.0445 17.2397 16.4113 16.8492 16.0208L15.435 17.435ZM9.99997 10C9.44769 10 8.99997 9.55228 8.99997 9H6.99997C6.99997 10.6569 8.34312 12 9.99997 12V10ZM9.99997 4C10.5523 4 11 4.44772 11 5H13C13 3.34315 11.6568 2 9.99997 2V4ZM9.99997 13C7.79083 13 5.99997 11.2091 5.99997 9H3.99997C3.99997 12.3137 6.68626 15 9.99997 15V13ZM6.99997 18H9.99997V16H6.99997V18ZM9.99997 18H12.5V16H9.99997V18ZM11 17V14H8.99997V17H11ZM9.99997 2C8.65184 2 7.51384 2.8885 7.13464 4.10945L9.04464 4.70265C9.1714 4.29451 9.5526 4 9.99997 4V2ZM11 5V8.33984H13V5H11ZM8.99997 9V8.58594H6.99997V9H8.99997ZM10.1901 9.98213C10.1293 9.99376 10.0658 10 9.99997 10V12C10.1926 12 10.3819 11.9817 10.5659 11.9465L10.1901 9.98213ZM14 9C14 9.5597 13.8856 10.0901 13.6799 10.5711L15.5188 11.3575C15.8288 10.6325 16 9.83494 16 9H14ZM12.1317 12.3854C11.5152 12.7746 10.7854 13 9.99997 13V15C11.1744 15 12.2728 14.6616 13.1994 14.0765L12.1317 12.3854ZM2.70708 4.70711L15.435 17.435L16.8492 16.0208L4.12129 3.29289L2.70708 4.70711Z" fill="currentColor"/>
</svg>
