<svg width="24" height="24" viewBox="0 0 24 24" fill="none" xmlns="http://www.w3.org/2000/svg">
<path d="M6 21V22C6.55228 22 7 21.5523 7 21H6ZM14 21.5L13.7575 22.4701C13.949 22.518 14.1504 22.5081 14.3363 22.4417L14 21.5ZM21 19L21.3363 19.9417C21.7343 19.7996 22 19.4226 22 19H21ZM10.9472 15.1056C10.4532 14.8586 9.85257 15.0588 9.60558 15.5528C9.35859 16.0468 9.55881 16.6474 10.0528 16.8944L10.9472 15.1056ZM14 14L14.3714 13.0715L14 14ZM8.5 12L8.81623 11.0513C8.71426 11.0173 8.60748 11 8.5 11V12ZM17 3L17.8967 2.55743C17.7283 2.2161 17.3806 2 17 2C16.6194 2 16.2717 2.2161 16.1033 2.55743L17 3ZM18.1756 5.38197L17.2788 5.82453C17.4245 6.11968 17.7061 6.32424 18.0318 6.37157L18.1756 5.38197ZM20.8042 5.76393L21.5022 6.48002C21.7748 6.21433 21.8729 5.81693 21.7553 5.45492C21.6377 5.0929 21.3247 4.82906 20.948 4.77433L20.8042 5.76393ZM18.9021 7.61803L18.2041 6.90195C17.9684 7.13168 17.8609 7.46269 17.9165 7.78708L18.9021 7.61803ZM19.3511 10.2361L18.8858 11.1212C19.2227 11.2983 19.631 11.2688 19.9389 11.0451C20.2469 10.8213 20.4011 10.4422 20.3368 10.067L19.3511 10.2361ZM17 9L17.4653 8.11487C17.174 7.96171 16.826 7.96171 16.5347 8.11487L17 9ZM14.6489 10.2361L13.6633 10.067C13.5989 10.4422 13.7531 10.8213 14.0611 11.0451C14.369 11.2688 14.7773 11.2983 15.1142 11.1212L14.6489 10.2361ZM15.0979 7.61803L16.0835 7.78708C16.1391 7.46269 16.0316 7.13168 15.7959 6.90195L15.0979 7.61803ZM13.1958 5.76393L13.052 4.77433C12.6753 4.82906 12.3623 5.0929 12.2447 5.45492C12.1271 5.81693 12.2252 6.21433 12.4978 6.48002L13.1958 5.76393ZM15.8244 5.38197L15.9682 6.37157C16.2939 6.32424 16.5755 6.11968 16.7212 5.82453L15.8244 5.38197ZM4 13H6V11H4V13ZM5 12V21H7V12H5ZM6 20H4V22H6V20ZM3 19V14H1V19H3ZM4 20C3.44772 20 3 19.5523 3 19H1C1 20.6569 2.34315 22 4 22V20ZM4 11C2.34315 11 1 12.3431 1 14H3C3 13.4477 3.44772 13 4 13V11ZM5.75746 20.4701L13.7575 22.4701L14.2425 20.5299L6.24254 18.5299L5.75746 20.4701ZM14.3363 22.4417L21.3363 19.9417L20.6637 18.0583L13.6637 20.5583L14.3363 22.4417ZM22 19C22 18.5066 21.8602 17.7889 21.4115 17.1657C20.9261 16.4915 20.1259 16 19 16V18C19.4741 18 19.6739 18.1751 19.7885 18.3343C19.9398 18.5445 20 18.8267 20 19H22ZM14 16C12.7548 16 11.9394 15.6017 10.9472 15.1056L10.0528 16.8944C11.0606 17.3983 12.2452 18 14 18V16ZM19 16H15.8438V18H19V16ZM15.8438 16H14V18H15.8438V16ZM16.7939 17.3118C16.9716 16.7704 17.0156 15.9706 16.6757 15.1624C16.3216 14.3203 15.5893 13.5587 14.3714 13.0715L13.6286 14.9285C14.4107 15.2413 14.7096 15.6463 14.8321 15.9376C14.9688 16.2628 14.9347 16.563 14.8936 16.6882L16.7939 17.3118ZM14.3714 13.0715C12.3455 12.2612 9.82482 11.3875 8.81623 11.0513L8.18377 12.9487C9.17518 13.2792 11.6545 14.1388 13.6286 14.9285L14.3714 13.0715ZM8.5 11H6V13H8.5V11ZM16.1033 3.44257L17.2788 5.82453L19.0723 4.9394L17.8967 2.55743L16.1033 3.44257ZM18.0318 6.37157L20.6604 6.75354L20.948 4.77433L18.3194 4.39236L18.0318 6.37157ZM20.1062 5.04785L18.2041 6.90195L19.6001 8.33412L21.5022 6.48002L20.1062 5.04785ZM17.9165 7.78708L18.3655 10.4051L20.3368 10.067L19.8877 7.44899L17.9165 7.78708ZM19.8165 9.35094L17.4653 8.11487L16.5347 9.88513L18.8858 11.1212L19.8165 9.35094ZM16.5347 8.11487L14.1835 9.35094L15.1142 11.1212L17.4653 9.88513L16.5347 8.11487ZM15.6345 10.4051L16.0835 7.78708L14.1123 7.44899L13.6633 10.067L15.6345 10.4051ZM15.7959 6.90195L13.8938 5.04785L12.4978 6.48002L14.3999 8.33412L15.7959 6.90195ZM13.3396 6.75354L15.9682 6.37157L15.6806 4.39236L13.052 4.77433L13.3396 6.75354ZM16.7212 5.82453L17.8967 3.44257L16.1033 2.55743L14.9277 4.9394L16.7212 5.82453Z" fill="currentColor"/>
</svg>
