<svg width="24" height="24" viewBox="0 0 24 24" fill="none" xmlns="http://www.w3.org/2000/svg">
<path d="M6 8H10M6 8V14M6 8V8C4.34315 8 3 6.65685 3 5V3M10 8V14M10 8H14M10 14V21M10 14H6M6 21V14M14 8H18M14 8V14M18 8V14M18 8V8C19.6569 8 21 6.65685 21 5V3M18 14V21M18 14H14M14 21V14M9 4C9 4.55228 8.55228 5 8 5C7.44772 5 7 4.55228 7 4C7 3.44772 7.44772 3 8 3C8.55228 3 9 3.44772 9 4ZM17 4C17 4.55228 16.5523 5 16 5C15.4477 5 15 4.55228 15 4C15 3.44772 15.4477 3 16 3C16.5523 3 17 3.44772 17 4Z" stroke="currentColor" stroke-width="var(--icon-stroke-width)" stroke-linecap="round" stroke-linejoin="round"/>
</svg>
