<svg xmlns="http://www.w3.org/2000/svg" xmlns:xlink="http://www.w3.org/1999/xlink"><symbol fill="none" viewBox="0 0 20 18" id="icon-advertising" xmlns="http://www.w3.org/2000/svg"><path d="M16 5a3 3 0 010 6M8 5v11a1 1 0 01-1 1H6a1 1 0 01-1-1v-5m5-6l4.524-3.77A.9.9 0 0116 1.922v12.156a.9.9 0 01-1.476.692L10 11H2a1 1 0 01-1-1V6a1 1 0 011-1h8z" stroke="#8197BB" stroke-width="2" stroke-linecap="round" stroke-linejoin="round"/></symbol><symbol fill="none" viewBox="0 0 18 20" id="icon-bell" xmlns="http://www.w3.org/2000/svg"><path d="M6 15v1a3 3 0 006 0v-1M7 3a2 2 0 114 0 7 7 0 014 6v3a4 4 0 002 3H1a4 4 0 002-3V9a7 7 0 014-6z" stroke="#8197BB" stroke-width="2" stroke-linecap="round" stroke-linejoin="round"/></symbol><symbol fill="none" viewBox="0 0 20 14" id="icon-broadcast" xmlns="http://www.w3.org/2000/svg"><path d="M6.43 3.5A4.984 4.984 0 005 7c0 1.363.545 2.598 1.43 3.5m7.14-7A4.984 4.984 0 0115 7a4.984 4.984 0 01-1.43 3.5M3.293 1A8.967 8.967 0 001 7c0 2.305.867 4.408 2.292 6M16.708 1A8.967 8.967 0 0119 7a8.967 8.967 0 01-2.292 6M11 7a1 1 0 11-2 0 1 1 0 012 0z" stroke="#8197BB" stroke-width="2" stroke-linecap="round"/></symbol><symbol fill="none" viewBox="0 0 16 16" id="icon-check" xmlns="http://www.w3.org/2000/svg"><path d="M8 15A7 7 0 108 1a7 7 0 000 14z" fill="#3073DF"/><path d="M5.667 8l1.555 1.556 3.111-3.112" fill="#3073DF"/><path d="M5.667 8l1.555 1.556 3.111-3.112M15 8A7 7 0 111 8a7 7 0 0114 0z" stroke="#FCFCFD" stroke-width="2" stroke-linecap="round" stroke-linejoin="round"/></symbol><symbol fill="none" viewBox="0 0 20 20" id="icon-community" xmlns="http://www.w3.org/2000/svg"><path d="M1 19v-2a4 4 0 014-4h4a4 4 0 014 4v2m1-17.87a4 4 0 010 7.75M19 19v-2a4 4 0 00-3-3.85M11 5a4 4 0 11-8 0 4 4 0 018 0z" stroke="#8197BB" stroke-width="2" stroke-linecap="round" stroke-linejoin="round"/></symbol><symbol fill="none" viewBox="0 0 20 20" id="icon-complain" xmlns="http://www.w3.org/2000/svg"><path d="M7 8h.01M13 8h.01M7.5 13.25a3.5 3.5 0 015 0M19 10a9 9 0 11-18 0 9 9 0 0118 0z" stroke="#8197BB" stroke-width="2" stroke-linecap="round" stroke-linejoin="round"/></symbol><symbol fill="none" viewBox="0 0 20 20" id="icon-copylink" xmlns="http://www.w3.org/2000/svg"><path d="M8 12a3.5 3.5 0 005 0l4-4a3.536 3.536 0 00-5-5l-.5.5M12 8a3.5 3.5 0 00-5 0l-4 4a3.535 3.535 0 105 5l.5-.5" stroke="#8197BB" stroke-width="2" stroke-linecap="round" stroke-linejoin="round"/></symbol><symbol fill="none" viewBox="0 0 18 20" id="icon-events" xmlns="http://www.w3.org/2000/svg"><path d="M13 1v4M5 1v4M1 9h16m-9 4h1v3M3 3h12a2 2 0 012 2v12a2 2 0 01-2 2H3a2 2 0 01-2-2V5a2 2 0 012-2z" stroke="#8197BB" stroke-width="2" stroke-linecap="round" stroke-linejoin="round"/></symbol><symbol fill="none" viewBox="0 0 21 19" id="icon-favorites" xmlns="http://www.w3.org/2000/svg"><path d="M18.5 10.572L11 18l-7.5-7.428A5 5 0 1111 4.006a5 5 0 117.5 6.572" stroke="#8197BB" stroke-width="2" stroke-linecap="round" stroke-linejoin="round"/></symbol><symbol fill="none" viewBox="0 0 20 20" id="icon-friends" xmlns="http://www.w3.org/2000/svg"><path d="M4 6h4M4 6v6m0-6v0a3 3 0 01-3-3V1m7 5v6m0-6h4m-4 6v7m0-7H4m0 7v-7m8-6h4m-4 0v6m4-6v6m0-6v0a3 3 0 003-3V1m-3 11v7m0-7h-4m0 7v-7M7 2a1 1 0 11-2 0 1 1 0 012 0zm8 0a1 1 0 11-2 0 1 1 0 012 0z" stroke="#8197BB" stroke-width="2" stroke-linecap="round" stroke-linejoin="round"/></symbol><symbol fill="none" viewBox="0 0 20 20" id="icon-home" xmlns="http://www.w3.org/2000/svg"><path d="M19 9l-2-1.778M1 9l2-1.778m0 0L10 1l7 6.222m-14 0V18a1 1 0 001 1h4m9-11.778V18a1 1 0 01-1 1h-4m5-11.778V3M8 19v-7h4v7m-4 0h4" stroke="#8197BB" stroke-width="2" stroke-linecap="round" stroke-linejoin="round"/></symbol><symbol fill="none" viewBox="0 0 21 19" id="icon-messenger" xmlns="http://www.w3.org/2000/svg"><path d="M10 10v.01M6 10v.01m8-.01v.01M1 18l1.3-3.9C1.176 12.438.77 10.47 1.156 8.562c.386-1.908 1.54-3.626 3.244-4.836 1.704-1.21 3.845-1.827 6.024-1.739 2.179.089 4.248.877 5.821 2.22 1.574 1.342 2.546 3.147 2.735 5.078.19 1.931-.417 3.858-1.706 5.422-1.29 1.564-3.173 2.659-5.302 3.08-2.13.422-4.358.142-6.272-.787L1 18z" stroke="#8197BB" stroke-width="2" stroke-linecap="round" stroke-linejoin="round"/></symbol><symbol fill="none" viewBox="0 0 18 18" id="icon-news" xmlns="http://www.w3.org/2000/svg"><path d="M13 2a1 1 0 100 2V2zm0 13h1-1zM12 1V0v1zM1 2H0h1zm3 15v1-1zM5 4a1 1 0 000 2V4zm4 2a1 1 0 100-2v2zM5 8a1 1 0 000 2V8zm4 2a1 1 0 100-2v2zm-4 2a1 1 0 100 2v-2zm4 2a1 1 0 100-2v2zm4-10h3V2h-3v2zm3 0l1.414-1.414A2 2 0 0016 2v2zm0 0h2a2 2 0 00-.586-1.414L16 4zm0 0v11h2V4h-2zm0 11a1 1 0 01-.293.707l1.414 1.414A3 3 0 0018 15h-2zm-.293.707A1 1 0 0115 16v2a3 3 0 002.121-.879l-1.414-1.414zM15 16a1 1 0 01-.707-.293l-1.414 1.414A3 3 0 0015 18v-2zm-.707-.293A1 1 0 0114 15h-2a3 3 0 00.879 2.121l1.414-1.414zM14 15V2h-2v13h2zm0-13a2 2 0 00-.586-1.414L12 2h2zM13.414.586A2 2 0 0012 0v2L13.414.586zM12 0H2v2h10V0zM2 0A2 2 0 00.586.586L2 2V0zM.586.586A2 2 0 000 2h2L.586.586zM0 2v12h2V2H0zm0 12a4 4 0 001.172 2.828l1.414-1.414A2 2 0 012 14H0zm1.172 2.828A4 4 0 004 18v-2a2 2 0 01-1.414-.586l-1.414 1.414zM4 18h11v-2H4v2zM5 6h4V4H5v2zm0 4h4V8H5v2zm0 4h4v-2H5v2z" fill="#8197BB"/></symbol><symbol fill="none" viewBox="0 0 20 18" id="icon-organizations" xmlns="http://www.w3.org/2000/svg"><path d="M15 10a1 1 0 100-2v2zm-2-2a1 1 0 100 2V8zm2 6a1 1 0 100-2v2zm-2-2a1 1 0 100 2v-2zM2 2h6V0H2v2zm7 14H2v2h7v-2zm-7 0H0a2 2 0 002 2v-2zM8 2h2a2 2 0 00-2-2v2zM2 0a2 2 0 00-2 2h2V0zm7 6h9V4H9v2zm9 0v10h2V6h-2zm0 10H9v2h9v-2zm0 0v2a2 2 0 002-2h-2zm0-10h2a2 2 0 00-2-2v2zM2 5V2H0v3h2zm7-1H1v2h8V4zm1 5V5H8v4h2zM8 2v7h2V2H8zM2 9V5H0v4h2zm7-1H1v2h8V8zm1 9v-4H8v4h2zm0-4V9H8v4h2zm-8 3v-3H0v3h2zm0-3V9H0v4h2zm7-1H1v2h8v-2zm6-4h-2v2h2V8zm0 4h-2v2h2v-2z" fill="#8197BB"/></symbol><symbol fill="none" viewBox="0 0 16 16" id="icon-plus" xmlns="http://www.w3.org/2000/svg"><path d="M8 1v14M1 8h14" stroke="#fff" stroke-opacity=".54" stroke-width="2" stroke-linecap="round" stroke-linejoin="round"/></symbol><symbol fill="none" viewBox="0 0 20 20" id="icon-promotions" xmlns="http://www.w3.org/2000/svg"><path d="M10 6v13m0-13c-.362-1.49-.985-2.765-1.787-3.657C7.41 1.451 6.465.983 5.5 1a2.5 2.5 0 100 5M10 6c.362-1.49.985-2.765 1.787-3.657C12.59 1.451 13.535.983 14.5 1a2.5 2.5 0 010 5m2.5 4v7a2 2 0 01-2 2H5a2 2 0 01-2-2v-7M2 6h16a1 1 0 011 1v2a1 1 0 01-1 1H2a1 1 0 01-1-1V7a1 1 0 011-1z" stroke="#8197BB" stroke-width="2" stroke-linecap="round" stroke-linejoin="round"/></symbol><symbol fill="none" viewBox="0 0 272 8" id="topbar" xmlns="http://www.w3.org/2000/svg"><path fill="#3073DF" d="M1 0h271v8H1z"/><path fill="#2061CB" d="M0 0h96v8H0z"/><path fill="#4F88E3" d="M168 0h-59v8h59zM212 0h-18v8h18z"/><path fill="#2061CB" d="M230 0h7v8h-7z"/></symbol></svg>