<svg width="16" height="14" viewBox="0 0 16 14" fill="none" xmlns="http://www.w3.org/2000/svg">
<path d="M6.06087 5.23758L6.7327 5.97829H6.7327L6.06087 5.23758ZM10.9919 5H9.99195C9.99195 5.55228 10.4397 6 10.9919 6V5ZM15 6.45411L15.9859 6.62138C15.9953 6.56612 16 6.51016 16 6.45411H15ZM14.1984 11.1788L15.1666 11.429C15.1737 11.4016 15.1796 11.3739 15.1843 11.346L14.1984 11.1788ZM5.83045 11.0764C5.52278 10.6177 4.90155 10.4954 4.44291 10.803C3.98426 11.1107 3.86188 11.7319 4.16955 12.1906L5.83045 11.0764ZM4.44368 5.0426C3.91492 5.20208 3.61556 5.76 3.77503 6.28876C3.93451 6.81752 4.49244 7.11688 5.02119 6.9574L4.44368 5.0426ZM6.7327 5.97829C7.57718 5.21235 8.00002 4.00377 8.00002 3H6.00002C6.00002 3.53885 5.74722 4.17202 5.38905 4.49687L6.7327 5.97829ZM10.9919 6H13.3968V4H10.9919V6ZM13.3968 6C13.5866 6 13.7513 6.06927 13.8586 6.16661L15.2022 4.68518C14.7082 4.23713 14.0574 4 13.3968 4V6ZM13.8586 6.16661C13.9627 6.26101 14 6.36692 14 6.45411H16C16 5.76999 15.6995 5.13619 15.2022 4.68518L13.8586 6.16661ZM14.0141 6.28683L13.2125 11.0115L15.1843 11.346L15.9859 6.62138L14.0141 6.28683ZM11.7936 12H7.3847V14H11.7936V12ZM13.2302 10.9285C13.243 10.8788 13.2327 10.9377 13.1219 11.094C13.0261 11.2291 12.8907 11.3864 12.728 11.5336C12.3777 11.8504 12.0395 12 11.7936 12V14C12.75 14 13.5502 13.4867 14.0697 13.0168C14.3419 12.7706 14.5742 12.5036 14.7535 12.2507C14.9177 12.0191 15.0897 11.7265 15.1666 11.429L13.2302 10.9285ZM7.3847 12C6.7757 12 6.18726 11.6083 5.83045 11.0764L4.16955 12.1906C4.78454 13.1073 5.92866 14 7.3847 14V12ZM9.99195 3V5H11.9919V3H9.99195ZM9.00002 2C9.5046 2 9.70265 2.13427 9.78414 2.21962C9.87363 2.31335 9.99195 2.52601 9.99195 3H11.9919C11.9919 2.21812 11.7962 1.43078 11.2307 0.83848C10.6571 0.237798 9.85923 0 9.00002 0V2ZM8.00002 3C8.00002 2.42977 8.11377 2.24434 8.16739 2.18665C8.20658 2.14448 8.37244 2 9.00002 2V0C8.12068 0 7.28654 0.196642 6.70246 0.82504C6.13281 1.43791 6.00002 2.25249 6.00002 3H8.00002ZM5.02119 6.9574C5.56698 6.79279 6.2581 6.40875 6.7327 5.97829L5.38905 4.49687C5.13191 4.7301 4.70175 4.96476 4.44368 5.0426L5.02119 6.9574ZM4 7V11H6V7H4ZM2 11V7H0V11H2ZM3 12C2.44772 12 2 11.5523 2 11H0C0 12.6569 1.34315 14 3 14V12ZM4 11C4 11.5523 3.55228 12 3 12V14C4.65685 14 6 12.6569 6 11H4ZM3 6C3.55228 6 4 6.44772 4 7H6C6 5.34315 4.65685 4 3 4V6ZM3 4C1.34315 4 0 5.34315 0 7H2C2 6.44772 2.44772 6 3 6V4Z" fill="#8197BB"/>
</svg>
