<svg width="24" height="24" viewBox="0 0 24 24" fill="none" xmlns="http://www.w3.org/2000/svg">
<path d="M8 8V7C7.44772 7 7 7.44772 7 8H8ZM16 8H17C17 7.44772 16.5523 7 16 7V8ZM10 15C9.44772 15 9 15.4477 9 16C9 16.5523 9.44772 17 10 17V15ZM14 17C14.5523 17 15 16.5523 15 16C15 15.4477 14.5523 15 14 15V17ZM7 10C7 10.5523 7.44772 11 8 11C8.55228 11 9 10.5523 9 10H7ZM15 10C15 10.5523 15.4477 11 16 11C16.5523 11 17 10.5523 17 10H15ZM6 5H18V3H6V5ZM19 6V18H21V6H19ZM18 19H6V21H18V19ZM5 18V6H3V18H5ZM6 19C5.44772 19 5 18.5523 5 18H3C3 19.6569 4.34315 21 6 21V19ZM19 18C19 18.5523 18.5523 19 18 19V21C19.6569 21 21 19.6569 21 18H19ZM18 5C18.5523 5 19 5.44772 19 6H21C21 4.34315 19.6569 3 18 3V5ZM6 3C4.34315 3 3 4.34315 3 6H5C5 5.44772 5.44772 5 6 5V3ZM8 9H12V7H8V9ZM12 9H16V7H12V9ZM13 16V8H11V16H13ZM12 15H10V17H12V15ZM12 17H14V15H12V17ZM7 8V10H9V8H7ZM15 8V10H17V8H15Z" fill="currentColor"/>
</svg>
