<svg width="20" height="14" viewBox="0 0 20 14" fill="none" xmlns="http://www.w3.org/2000/svg">
<path d="M6.42928 3.5C5.54516 4.40188 5 5.63727 5 7C5 8.36273 5.54516 9.59812 6.42928 10.5M13.5707 3.5C14.4548 4.40188 15 5.63727 15 7C15 8.36273 14.4548 9.59812 13.5707 10.5M3.29168 1C1.86656 2.59227 1 4.69494 1 7C1 9.30506 1.86656 11.4077 3.29168 13M16.7083 1C18.1334 2.59227 19 4.69494 19 7C19 9.30506 18.1334 11.4077 16.7083 13M11 7C11 7.55228 10.5523 8 10 8C9.44772 8 9 7.55228 9 7C9 6.44772 9.44772 6 10 6C10.5523 6 11 6.44772 11 7Z"  stroke="currentColor" stroke-width="var(--icon-stroke-width)" stroke-linecap="round"/>
</svg>
