<svg width="24" height="24" viewBox="0 0 24 24" fill="none" xmlns="http://www.w3.org/2000/svg">
<path d="M5.08619 19.5939C4.86188 20.0985 5.08918 20.6895 5.59386 20.9138C6.09855 21.1381 6.68951 20.9108 6.91381 20.4061L5.08619 19.5939ZM6.88889 18L5.97508 17.5939L6.88889 18ZM10 11L10.9138 10.5939C10.7533 10.2327 10.3952 10 10 10C9.60481 10 9.24669 10.2327 9.08619 10.5939L10 11ZM13.0862 20.4061C13.3105 20.9108 13.9015 21.1381 14.4061 20.9138C14.9108 20.6895 15.1381 20.0985 14.9138 19.5939L13.0862 20.4061ZM19 9C19.5523 9 20 8.55228 20 8C20 7.44772 19.5523 7 19 7V9ZM15 7C14.4477 7 14 7.44772 14 8C14 8.55228 14.4477 9 15 9V7ZM6.91381 20.4061L7.8027 18.4061L5.97508 17.5939L5.08619 19.5939L6.91381 20.4061ZM7.8027 18.4061L10.9138 11.4061L9.08619 10.5939L5.97508 17.5939L7.8027 18.4061ZM9.08619 11.4061L12.1973 18.4061L14.0249 17.5939L10.9138 10.5939L9.08619 11.4061ZM12.1973 18.4061L13.0862 20.4061L14.9138 19.5939L14.0249 17.5939L12.1973 18.4061ZM6.88889 19H13.1111V17H6.88889V19ZM19 7H15V9H19V7Z" fill="currentColor"/>
</svg>