<svg width="24" height="24" viewBox="0 0 24 24" fill="none" xmlns="http://www.w3.org/2000/svg">
<path d="M21 7L19 3H5L3 7M21 7V8C21 9.30622 20.1652 10.4175 19 10.8293M21 7H15M3 7H9M3 7V8C3 9.30622 3.83481 10.4175 5 10.8293M9 8C9 9.65685 7.65685 11 6 11C5.64936 11 5.31278 10.9398 5 10.8293M9 8C9 9.65685 10.3431 11 12 11C13.6569 11 15 9.65685 15 8M9 8V7M15 8C15 9.65685 16.3431 11 18 11C18.3506 11 18.6872 10.9398 19 10.8293M15 8V7M9 7H15M21 21H19M3 21H5M5 21V10.8293M5 21H9M19 21V10.8293M19 21H15M9 21V17C9 15.8954 9.89543 15 11 15H13C14.1046 15 15 15.8954 15 17V21M9 21H15" stroke="currentColor" stroke-width="var(--icon-stroke-width)" stroke-linecap="round" stroke-linejoin="round"/>
</svg>
