<svg width="24" height="24" viewBox="0 0 24 24" fill="none" xmlns="http://www.w3.org/2000/svg">
<path d="M3 9.5L2.55279 8.60557C2.214 8.77496 2 9.12123 2 9.5C2 9.87877 2.214 10.225 2.55279 10.3944L3 9.5ZM12 5L12.4472 4.10557C12.1657 3.96481 11.8343 3.96481 11.5528 4.10557L12 5ZM21 9.5L21.4472 10.3944C21.786 10.225 22 9.87877 22 9.5C22 9.12123 21.786 8.77496 21.4472 8.60557L21 9.5ZM12 14L11.5528 14.8944C11.8343 15.0352 12.1657 15.0352 12.4472 14.8944L12 14ZM8.5 11.84C8.5 11.2877 8.05228 10.84 7.5 10.84C6.94772 10.84 6.5 11.2877 6.5 11.84H8.5ZM7.5 17.0958H6.5V17.5194L6.80433 17.8141L7.5 17.0958ZM16.4976 18.8132C16.974 18.5338 17.1337 17.9211 16.8543 17.4447C16.5749 16.9684 15.9622 16.8087 15.4858 17.0881L16.4976 18.8132ZM20 11C20 10.4477 19.5523 10 19 10C18.4477 10 18 10.4477 18 11H20ZM19 15V17C20.1046 17 21 16.1046 21 15H19ZM19 15H17C17 16.1046 17.8954 17 19 17V15ZM19 15V13C17.8954 13 17 13.8954 17 15H19ZM19 15H21C21 13.8954 20.1046 13 19 13V15ZM3.44721 10.3944L12.4472 5.89443L11.5528 4.10557L2.55279 8.60557L3.44721 10.3944ZM11.5528 5.89443L20.5528 10.3944L21.4472 8.60557L12.4472 4.10557L11.5528 5.89443ZM20.5528 8.60557L11.5528 13.1056L12.4472 14.8944L21.4472 10.3944L20.5528 8.60557ZM12.4472 13.1056L3.44721 8.60557L2.55279 10.3944L11.5528 14.8944L12.4472 13.1056ZM6.5 11.84V17.0958H8.5V11.84H6.5ZM7.5 17.0958C6.80433 17.8141 6.8047 17.8145 6.80508 17.8149C6.80523 17.815 6.80563 17.8154 6.80593 17.8157C6.80652 17.8163 6.80717 17.8169 6.80788 17.8176C6.8093 17.8189 6.81096 17.8205 6.81285 17.8223C6.81663 17.8259 6.82136 17.8304 6.82701 17.8357C6.83832 17.8463 6.85336 17.8602 6.87204 17.8771C6.90939 17.911 6.96141 17.9569 7.02742 18.0123C7.15928 18.123 7.34795 18.2726 7.58803 18.4402C8.06623 18.774 8.75985 19.1874 9.62456 19.5044C11.3775 20.1471 13.8214 20.3829 16.4976 18.8132L15.4858 17.0881C13.4232 18.2979 11.6212 18.1063 10.313 17.6266C9.64715 17.3825 9.10638 17.061 8.73283 16.8002C8.54704 16.6705 8.40549 16.5579 8.3136 16.4807C8.26774 16.4422 8.2345 16.4128 8.21456 16.3947C8.2046 16.3857 8.19799 16.3795 8.19481 16.3765C8.19322 16.3751 8.19249 16.3744 8.19263 16.3745C8.1927 16.3746 8.19298 16.3748 8.19349 16.3753C8.19375 16.3756 8.19405 16.3759 8.19442 16.3762C8.1946 16.3764 8.19491 16.3767 8.195 16.3768C8.19533 16.3771 8.19567 16.3774 7.5 17.0958ZM20 14V11H18V14H20Z" fill="#8197BB"/>
</svg>
