<svg width="20" height="20" viewBox="0 0 20 20" fill="none" xmlns="http://www.w3.org/2000/svg">
<path d="M8 12C8.32588 12.3326 8.71485 12.5968 9.14413 12.7772C9.57341 12.9576 10.0344 13.0505 10.5 13.0505C10.9656 13.0505 11.4266 12.9576 11.8559 12.7772C12.2852 12.5968 12.6741 12.3326 13 12L17 8C17.663 7.33695 18.0355 6.43768 18.0355 5.5C18.0355 4.56231 17.663 3.66304 17 3C16.337 2.33695 15.4377 1.96446 14.5 1.96446C13.5623 1.96446 12.663 2.33695 12 3L11.5 3.5M12 8C11.6741 7.6674 11.2852 7.40317 10.8559 7.22278C10.4266 7.0424 9.96564 6.94949 9.5 6.94949C9.03436 6.94949 8.57341 7.0424 8.14413 7.22278C7.71485 7.40317 7.32588 7.6674 7 8L3 12C2.33696 12.663 1.96447 13.5623 1.96447 14.5C1.96447 15.4377 2.33696 16.337 3 17C3.66304 17.663 4.56232 18.0355 5.5 18.0355C6.43768 18.0355 7.33696 17.663 8 17L8.5 16.5" stroke="#8197BB" stroke-width="2" stroke-linecap="round" stroke-linejoin="round"/>
</svg>
