<svg width="24" height="24" viewBox="0 0 24 24" fill="none" xmlns="http://www.w3.org/2000/svg">
<path d="M9.5 5H14.5V3H9.5V5ZM5 8H6.5V6H5V8ZM4 9C4 8.44772 4.44772 8 5 8V6C3.34315 6 2 7.34315 2 9H4ZM4 18V9H2V18H4ZM5 19C4.44772 19 4 18.5523 4 18H2C2 19.6569 3.34315 21 5 21V19ZM19 19H5V21H19V19ZM20 18C20 18.5523 19.5523 19 19 19V21C20.6569 21 22 19.6569 22 18H20ZM20 9V18H22V9H20ZM19 8C19.5523 8 20 8.44771 20 9H22C22 7.34315 20.6569 6 19 6V8ZM17.5 8H19V6H17.5V8ZM7 5.5C7 5.77614 6.77614 6 6.5 6V8C7.88071 8 9 6.88071 9 5.5H7ZM17.5 6C17.2239 6 17 5.77614 17 5.5H15C15 6.88071 16.1193 8 17.5 8V6ZM14.5 5C14.7761 5 15 5.22386 15 5.5H17C17 4.11929 15.8807 3 14.5 3V5ZM9.5 3C8.11929 3 7 4.11929 7 5.5H9C9 5.22386 9.22386 5 9.5 5V3ZM14 13C14 14.1046 13.1046 15 12 15V17C14.2091 17 16 15.2091 16 13H14ZM12 15C10.8954 15 10 14.1046 10 13H8C8 15.2091 9.79086 17 12 17V15ZM10 13C10 11.8954 10.8954 11 12 11V9C9.79086 9 8 10.7909 8 13H10ZM12 11C13.1046 11 14 11.8954 14 13H16C16 10.7909 14.2091 9 12 9V11Z" fill="#8197BB"/>
</svg>
