<svg width="24" height="24" viewBox="0 0 24 24" fill="none" xmlns="http://www.w3.org/2000/svg">
<path d="M16 8C16 8.55228 16.4477 9 17 9C17.5523 9 18 8.55228 18 8H16ZM16 4V3V4ZM6 4V3V4ZM4 6H3H4ZM6 8V9V8ZM18 8V9V8ZM18 12C18 12.5523 18.4477 13 19 13C19.5523 13 20 12.5523 20 12H18ZM20 16C20 15.4477 19.5523 15 19 15C18.4477 15 18 15.4477 18 16H20ZM4 18H3H4ZM20 12H21C21 11.4477 20.5523 11 20 11V12ZM20 16V17C20.5523 17 21 16.5523 21 16H20ZM16 12V13V12ZM18 8V5H16V8H18ZM18 5C18 4.46957 17.7893 3.96086 17.4142 3.58579L16 5L16 5H18ZM17.4142 3.58579C17.0391 3.21071 16.5304 3 16 3V5L16 5L17.4142 3.58579ZM16 3H6V5H16V3ZM6 3C5.20435 3 4.44129 3.31607 3.87868 3.87868L5.29289 5.29289C5.48043 5.10536 5.73478 5 6 5V3ZM3.87868 3.87868C3.31607 4.44129 3 5.20435 3 6H5C5 5.73478 5.10536 5.48043 5.29289 5.29289L3.87868 3.87868ZM3 6C3 6.79565 3.31607 7.55871 3.87868 8.12132L5.29289 6.70711C5.10536 6.51957 5 6.26522 5 6H3ZM3.87868 8.12132C4.44129 8.68393 5.20435 9 6 9V7C5.73478 7 5.48043 6.89464 5.29289 6.70711L3.87868 8.12132ZM6 9H18V7H6V9ZM18 9H18L19.4142 7.58579C19.0391 7.21071 18.5304 7 18 7V9ZM18 9H18H20C20 8.46957 19.7893 7.96086 19.4142 7.58579L18 9ZM18 9V12H20V9H18ZM18 16V19H20V16H18ZM18 19L18 19L19.4142 20.4142C19.7893 20.0391 20 19.5304 20 19H18ZM18 19L18 19V21C18.5304 21 19.0391 20.7893 19.4142 20.4142L18 19ZM18 19H6V21H18V19ZM6 19C5.73478 19 5.48043 18.8946 5.29289 18.7071L3.87868 20.1213C4.44129 20.6839 5.20435 21 6 21V19ZM5.29289 18.7071C5.10536 18.5196 5 18.2652 5 18H3C3 18.7956 3.31607 19.5587 3.87868 20.1213L5.29289 18.7071ZM5 18V6H3V18H5ZM19 12V16H21V12H19ZM20 15H16V17H20V15ZM16 15C15.7348 15 15.4804 14.8946 15.2929 14.7071L13.8787 16.1213C14.4413 16.6839 15.2043 17 16 17V15ZM15.2929 14.7071C15.1054 14.5196 15 14.2652 15 14H13C13 14.7957 13.3161 15.5587 13.8787 16.1213L15.2929 14.7071ZM15 14C15 13.7348 15.1054 13.4804 15.2929 13.2929L13.8787 11.8787C13.3161 12.4413 13 13.2043 13 14H15ZM15.2929 13.2929C15.4804 13.1054 15.7348 13 16 13V11C15.2043 11 14.4413 11.3161 13.8787 11.8787L15.2929 13.2929ZM16 13H20V11H16V13Z" fill="currentColor"/>
</svg>
