<svg width="20" height="20" viewBox="0 0 20 20" fill="none" xmlns="http://www.w3.org/2000/svg">
<path d="M10 7V17M10 7C9.74163 5.80763 9.29675 4.78824 8.72338 4.07478C8.15002 3.36133 7.47478 2.9869 6.78571 3.00035C6.31211 3.00035 5.85791 3.21104 5.52302 3.58608C5.18814 3.96112 5 4.46979 5 5.00017C5 5.53056 5.18814 6.03922 5.52302 6.41426C5.85791 6.7893 6.31211 7 6.78571 7M10 7C10.2584 5.80763 10.7033 4.78824 11.2766 4.07478C11.85 3.36133 12.5252 2.9869 13.2143 3.00035C13.6879 3.00035 14.1421 3.21104 14.477 3.58608C14.8119 3.96112 15 4.46979 15 5.00017C15 5.53056 14.8119 6.03922 14.477 6.41426C14.1421 6.7893 13.6879 7 13.2143 7M16 11V15.6667C16 16.0203 15.8194 16.3594 15.4979 16.6095C15.1764 16.8595 14.7404 17 14.2857 17H5.71429C5.25963 17 4.82359 16.8595 4.5021 16.6095C4.18061 16.3594 4 16.0203 4 15.6667V11M3.77778 7H16.2222C16.6518 7 17 7.44772 17 8V10C17 10.5523 16.6518 11 16.2222 11H3.77778C3.34822 11 3 10.5523 3 10V8C3 7.44772 3.34822 7 3.77778 7Z" stroke="white" stroke-opacity="0.87" stroke-width="2" stroke-linecap="round" stroke-linejoin="round"/>
</svg>
