<svg width="24" height="24" viewBox="0 0 24 24" fill="none" xmlns="http://www.w3.org/2000/svg">
<path d="M10.3284 8.82667L11.0354 9.53389L10.3284 8.82667ZM12.0858 3.58561L11.3788 2.8784L11.3788 2.8784L12.0858 3.58561ZM15.5 9.99789H14.5C14.5 10.5502 14.9477 10.9979 15.5 10.9979V9.99789ZM20.5 11.9973L21.4806 12.1935C21.4935 12.1289 21.5 12.0632 21.5 11.9973H20.5ZM19.5 16.9958L20.4736 17.2241C20.4761 17.2134 20.4784 17.2027 20.4806 17.192L19.5 16.9958ZM8.87934 17.1011C8.59221 16.6294 7.97699 16.4797 7.50521 16.7668C7.03344 17.0539 6.88376 17.6692 7.17089 18.1409L8.87934 17.1011ZM7.89389 8.97195C7.34638 9.04442 6.96129 9.54701 7.03376 10.0945C7.10623 10.642 7.60883 11.0271 8.15634 10.9547L7.89389 8.97195ZM11.0354 9.53389C11.9731 8.59645 12.5 7.32496 12.5 5.9991H10.5C10.5 6.79433 10.184 7.55705 9.62143 8.11946L11.0354 9.53389ZM12.5 5.9991V4.9994H10.5V5.9991H12.5ZM12.5 4.9994C12.5 4.73444 12.6053 4.48027 12.7928 4.29282L11.3788 2.8784C10.8161 3.44087 10.5 4.20381 10.5 4.9994H12.5ZM12.7928 4.29282C12.9803 4.10537 13.2347 4 13.5 4V2C12.7044 2 11.9414 2.31593 11.3788 2.8784L12.7928 4.29282ZM13.5 4C13.7653 4 14.0197 4.10537 14.2072 4.29282L15.6212 2.8784C15.0586 2.31593 14.2956 2 13.5 2V4ZM14.2072 4.29282C14.3947 4.48027 14.5 4.73444 14.5 4.9994H16.5C16.5 4.20381 16.1839 3.44087 15.6212 2.8784L14.2072 4.29282ZM14.5 4.9994V9.99789H16.5V4.9994H14.5ZM15.5 10.9979H18.5V8.99789H15.5V10.9979ZM18.5 10.9979C18.7653 10.9979 19.0197 11.1033 19.2072 11.2907L20.6212 9.87629C20.0586 9.31383 19.2956 8.99789 18.5 8.99789V10.9979ZM19.2072 11.2907C19.3947 11.4782 19.5 11.7323 19.5 11.9973H21.5C21.5 11.2017 21.1839 10.4388 20.6212 9.87629L19.2072 11.2907ZM19.5194 11.8011L18.5194 16.7996L20.4806 17.192L21.4806 12.1935L19.5194 11.8011ZM16.5 18.5H11V20.5H16.5V18.5ZM18.5264 16.7675C18.5283 16.7596 18.5206 16.7922 18.4841 16.8686C18.4502 16.9398 18.4004 17.0299 18.3337 17.1335C18.1998 17.3418 18.0153 17.5772 17.7966 17.7952C17.3276 18.2627 16.8591 18.5 16.5 18.5V20.5C17.6409 20.5 18.5925 19.8258 19.2086 19.2116C19.5324 18.8888 19.8067 18.5406 20.0158 18.2155C20.2127 17.9094 20.3958 17.556 20.4736 17.2241L18.5264 16.7675ZM11 18.5C10.1821 18.5 9.37745 17.9195 8.87934 17.1011L7.17089 18.1409C7.8851 19.3144 9.2418 20.5 11 20.5V18.5ZM8.15634 10.9547C9.24008 10.8112 10.2538 10.3153 11.0354 9.53389L9.62143 8.11946C9.15251 8.58823 8.54426 8.88586 7.89389 8.97195L8.15634 10.9547ZM4 10H6V8H4V10ZM7 11V18H9V11H7ZM6 19H4V21H6V19ZM3 18V11H1V18H3ZM4 19C3.44772 19 3 18.5523 3 18H1C1 19.6569 2.34315 21 4 21V19ZM7 18C7 18.5523 6.55228 19 6 19V21C7.65685 21 9 19.6569 9 18H7ZM6 10C6.55228 10 7 10.4477 7 11H9C9 9.34315 7.65685 8 6 8V10ZM4 8C2.34315 8 1 9.34315 1 11H3C3 10.4477 3.44772 10 4 10V8Z" fill="#4F88E3"/>
</svg>
