<svg width="24" height="24" viewBox="0 0 24 24" fill="none" xmlns="http://www.w3.org/2000/svg">
<path d="M5 15H6.5C7.32843 15 8 14.3284 8 13.5C8 12.6716 7.32843 12 6.5 12H5V15ZM5 15V17" stroke="#8197BB" stroke-width="2" stroke-linecap="round" stroke-linejoin="round"/>
<path d="M18.5 15H17M19 12H17V15M17 15V17" stroke="currentColor" stroke-width="var(--icon-stroke-width)" stroke-linecap="round" stroke-linejoin="round"/>
<path d="M11 17H10C10 17.2652 10.1054 17.5196 10.2929 17.7071C10.4804 17.8946 10.7348 18 11 18V17ZM11 12V11C10.4477 11 10 11.4477 10 12L11 12ZM11 13H12V11H11V13ZM13 14V15H15V14H13ZM12 16H11V18H12V16ZM13 15C13 15.5523 12.5523 16 12 16V18C13.6569 18 15 16.6569 15 15H13ZM12 13C12.5523 13 13 13.4477 13 14H15C15 12.3431 13.6569 11 12 11V13ZM10 12L10 17H12L12 12L10 12Z" fill="#8197BB"/>
<path d="M14 3V7C14 7.26522 14.1054 7.51957 14.2929 7.70711C14.4804 7.89464 14.7348 8 15 8H19L14 3ZM14 3H7C6.46957 3 5.96086 3.21071 5.58579 3.58579C5.21071 3.96086 5 4.46957 5 5V8M5.58579 20.4142C5.96086 20.7893 6.46957 21 7 21H17C17.5304 21 18.0391 20.7893 18.4142 20.4142" stroke="currentColor" stroke-width="var(--icon-stroke-width)" stroke-linecap="round" stroke-linejoin="round"/>
</svg>
