<svg width="18" height="18" viewBox="0 0 18 18" fill="none" xmlns="http://www.w3.org/2000/svg">
<path d="M13 2C12.4477 2 12 2.44772 12 3C12 3.55228 12.4477 4 13 4V2ZM13 15H14H13ZM12 1V0V1ZM1 2H0H1ZM4 17V18V17ZM5 4C4.44772 4 4 4.44772 4 5C4 5.55228 4.44772 6 5 6V4ZM9 6C9.55229 6 10 5.55228 10 5C10 4.44772 9.55229 4 9 4V6ZM5 8C4.44772 8 4 8.44772 4 9C4 9.55229 4.44772 10 5 10V8ZM9 10C9.55229 10 10 9.55229 10 9C10 8.44772 9.55229 8 9 8V10ZM5 12C4.44772 12 4 12.4477 4 13C4 13.5523 4.44772 14 5 14V12ZM9 14C9.55229 14 10 13.5523 10 13C10 12.4477 9.55229 12 9 12V14ZM13 4H16V2H13V4ZM16 4L16 4L17.4142 2.58579C17.0391 2.21071 16.5304 2 16 2V4ZM16 4L16 4H18C18 3.46957 17.7893 2.96086 17.4142 2.58579L16 4ZM16 4V15H18V4H16ZM16 15C16 15.2652 15.8946 15.5196 15.7071 15.7071L17.1213 17.1213C17.6839 16.5587 18 15.7957 18 15H16ZM15.7071 15.7071C15.5196 15.8946 15.2652 16 15 16V18C15.7957 18 16.5587 17.6839 17.1213 17.1213L15.7071 15.7071ZM15 16C14.7348 16 14.4804 15.8946 14.2929 15.7071L12.8787 17.1213C13.4413 17.6839 14.2043 18 15 18V16ZM14.2929 15.7071C14.1054 15.5196 14 15.2652 14 15H12C12 15.7957 12.3161 16.5587 12.8787 17.1213L14.2929 15.7071ZM14 15V2H12V15H14ZM14 2C14 1.46957 13.7893 0.960859 13.4142 0.585787L12 2V2H14ZM13.4142 0.585787C13.0391 0.210714 12.5304 0 12 0V2V2L13.4142 0.585787ZM12 0H2V2H12V0ZM2 0C1.46957 0 0.960859 0.210714 0.585787 0.585787L2 2L2 2V0ZM0.585787 0.585787C0.210714 0.960859 0 1.46957 0 2H2L2 2L0.585787 0.585787ZM0 2V14H2V2H0ZM0 14C0 15.0609 0.421427 16.0783 1.17157 16.8284L2.58579 15.4142C2.21071 15.0391 2 14.5304 2 14H0ZM1.17157 16.8284C1.92172 17.5786 2.93913 18 4 18V16C3.46957 16 2.96086 15.7893 2.58579 15.4142L1.17157 16.8284ZM4 18H15V16H4V18ZM5 6H9V4H5V6ZM5 10H9V8H5V10ZM5 14H9V12H5V14Z" fill="currentColor"/>
</svg>
