<svg width="24" height="24" viewBox="0 0 24 24" fill="none" xmlns="http://www.w3.org/2000/svg">
<path d="M13 9C13 8.44772 12.5523 8 12 8C11.4477 8 11 8.44772 11 9H13ZM5 16C5 16.5523 5.44772 17 6 17C6.55228 17 7 16.5523 7 16H5ZM17 16C17 16.5523 17.4477 17 18 17C18.5523 17 19 16.5523 19 16H17ZM13 7C13 7.55228 13.4477 8 14 8C14.5523 8 15 7.55228 15 7H13ZM9 7C9 7.55228 9.44772 8 10 8C10.5523 8 11 7.55228 11 7H9ZM20 15V19H22V15H20ZM19 20H5V22H19V20ZM4 19V15H2V19H4ZM7 12H12V10H7V12ZM12 12H17V10H12V12ZM11 9V11H13V9H11ZM5 20C4.44772 20 4 19.5523 4 19H2C2 20.6569 3.34315 22 5 22V20ZM20 19C20 19.5523 19.5523 20 19 20V22C20.6569 22 22 20.6569 22 19H20ZM22 15C22 12.2386 19.7614 10 17 10V12C18.6569 12 20 13.3431 20 15H22ZM4 15C4 13.3431 5.34315 12 7 12V10C4.23858 10 2 12.2386 2 15H4ZM8 15C8.55228 15 9 15.4477 9 16H11C11 14.3431 9.65685 13 8 13V15ZM8 13C6.34315 13 5 14.3431 5 16H7C7 15.4477 7.44772 15 8 15V13ZM16 15C16.5523 15 17 15.4477 17 16H19C19 14.3431 17.6569 13 16 13V15ZM16 13C14.3431 13 13 14.3431 13 16H15C15 15.4477 15.4477 15 16 15V13ZM12 19C13.6569 19 15 17.6569 15 16H13C13 16.5523 12.5523 17 12 17V19ZM12 17C11.4477 17 11 16.5523 11 16H9C9 17.6569 10.3431 19 12 19V17ZM13 6V7H15V6H13ZM11 7V6H9V7H11ZM15 6C15 5.23193 14.7074 4.30782 14.2749 3.57671C14.0535 3.20239 13.7666 2.82863 13.4101 2.53817C13.0527 2.24692 12.5735 2 12 2V4C11.9788 4 12.0257 3.99001 12.1468 4.08867C12.2689 4.18812 12.413 4.35725 12.5535 4.59486C12.8449 5.08761 13 5.6635 13 6H15ZM11 6C11 5.6635 11.1551 5.08761 11.4465 4.59486C11.587 4.35725 11.7311 4.18812 11.8532 4.08867C11.9743 3.99001 12.0212 4 12 4V2C11.4265 2 10.9473 2.24692 10.5899 2.53817C10.2334 2.82863 9.94646 3.20239 9.72507 3.57671C9.29265 4.30782 9 5.23193 9 6H11Z" fill="#8197BB"/>
</svg>
