<svg width="18" height="20" viewBox="0 0 18 20" fill="none" xmlns="http://www.w3.org/2000/svg">
<path d="M0.0861884 18.5939C-0.138116 19.0985 0.0891774 19.6895 0.593862 19.9138C1.09855 20.1381 1.68951 19.9108 1.91381 19.4061L0.0861884 18.5939ZM1.88889 17L0.975077 16.5939L1.88889 17ZM5 10L5.91381 9.59386C5.75331 9.23273 5.39519 9 5 9C4.60481 9 4.24669 9.23273 4.08619 9.59386L5 10ZM8.08619 19.4061C8.31049 19.9108 8.90145 20.1381 9.40614 19.9138C9.91082 19.6895 10.1381 19.0985 9.91381 18.5939L8.08619 19.4061ZM10 0C9.44771 0 9 0.447715 9 1C9 1.55228 9.44771 2 10 2V0ZM17 1L17.7894 1.61394C18.0238 1.31246 18.0661 0.903745 17.8983 0.560649C17.7305 0.217552 17.3819 0 17 0V1ZM10 10L9.21065 9.38606C8.97616 9.68754 8.93388 10.0963 9.10168 10.4394C9.26949 10.7824 9.61807 11 10 11V10ZM17 11C17.5523 11 18 10.5523 18 10C18 9.44771 17.5523 9 17 9V11ZM1.91381 19.4061L2.8027 17.4061L0.975077 16.5939L0.0861884 18.5939L1.91381 19.4061ZM2.8027 17.4061L5.91381 10.4061L4.08619 9.59386L0.975077 16.5939L2.8027 17.4061ZM4.08619 10.4061L7.1973 17.4061L9.02492 16.5939L5.91381 9.59386L4.08619 10.4061ZM7.1973 17.4061L8.08619 19.4061L9.91381 18.5939L9.02492 16.5939L7.1973 17.4061ZM1.88889 18H8.11111V16H1.88889V18ZM10 2H17V0H10V2ZM16.2106 0.386059L9.21065 9.38606L10.7894 10.6139L17.7894 1.61394L16.2106 0.386059ZM10 11H17V9H10V11Z" fill="#8197BB"/>
</svg>
