<svg width="24" height="24" viewBox="0 0 24 24" fill="none" xmlns="http://www.w3.org/2000/svg">
<path d="M5.99995 10C5.99995 9.44772 5.55224 9 4.99995 9C4.44767 9 3.99995 9.44772 3.99995 10H5.99995ZM7.99995 20C7.44767 20 6.99995 20.4477 6.99995 21C6.99995 21.5523 7.44767 22 7.99995 22V20ZM16 22C16.5522 22 17 21.5523 17 21C17 20.4477 16.5522 20 16 20V22ZM7.99995 5.1875C7.99995 5.73978 8.44767 6.1875 8.99995 6.1875C9.55224 6.1875 9.99995 5.73978 9.99995 5.1875H7.99995ZM13.8844 10.6723C13.6989 11.1924 13.9701 11.7646 14.4903 11.9502C15.0104 12.1358 15.5826 11.8645 15.7681 11.3444L13.8844 10.6723ZM12.7362 13.9322C13.2791 13.831 13.6372 13.3089 13.536 12.7659C13.4349 12.223 12.9127 11.8649 12.3698 11.9661L12.7362 13.9322ZM9.99995 9.42188C9.99995 8.86959 9.55224 8.42188 8.99995 8.42188C8.44767 8.42188 7.99995 8.86959 7.99995 9.42188H9.99995ZM16.9473 13.3947C16.6348 13.8501 16.7507 14.4726 17.2061 14.7851C17.6615 15.0975 18.2839 14.9817 18.5964 14.5263L16.9473 13.3947ZM20 10C20 9.44772 19.5522 9 19 9C18.4477 9 18 9.44772 18 10H20ZM16.1211 16.8568C16.5945 16.5723 16.7476 15.958 16.4631 15.4846C16.1786 15.0112 15.5642 14.8581 15.0909 15.1426L16.1211 16.8568ZM18.8787 20.7071C19.2692 21.0977 19.9024 21.0977 20.2929 20.7071C20.6834 20.3166 20.6834 19.6834 20.2929 19.2929L18.8787 20.7071ZM4.73653 3.73657C4.346 3.34605 3.71284 3.34605 3.32231 3.73657C2.93179 4.1271 2.93179 4.76026 3.32231 5.15079L4.73653 3.73657ZM12 3C13.1045 3 14 3.89543 14 5H16C16 2.79086 14.2091 1 12 1V3ZM14 5V10H16V5H14ZM12 12C10.8954 12 9.99995 11.1046 9.99995 10H7.99995C7.99995 12.2091 9.79081 14 12 14V12ZM9.99995 5C9.99995 3.89543 10.8954 3 12 3V1C9.79081 1 7.99995 2.79086 7.99995 5H9.99995ZM3.99995 10C3.99995 12.1217 4.84281 14.1566 6.3431 15.6569L7.75731 14.2426C6.63209 13.1174 5.99995 11.5913 5.99995 10H3.99995ZM6.3431 15.6569C7.84339 17.1571 9.87822 18 12 18V16C10.4087 16 8.88253 15.3679 7.75731 14.2426L6.3431 15.6569ZM7.99995 22H12V20H7.99995V22ZM12 22H16V20H12V22ZM11 17V21H13V17H11ZM9.99995 5.1875V5H7.99995V5.1875H9.99995ZM14 10C14 10.2376 13.9589 10.4635 13.8844 10.6723L15.7681 11.3444C15.9185 10.9229 16 10.4699 16 10H14ZM12.3698 11.9661C12.2507 11.9883 12.1271 12 12 12V14C12.2506 14 12.4968 13.9768 12.7362 13.9322L12.3698 11.9661ZM9.99995 10V9.42188H7.99995V10H9.99995ZM18.5964 14.5263C19.5042 13.2033 20 11.6272 20 10H18C18 11.2203 17.6282 12.4024 16.9473 13.3947L18.5964 14.5263ZM12 18C13.4641 18 14.8869 17.5986 16.1211 16.8568L15.0909 15.1426C14.1651 15.699 13.098 16 12 16V18ZM20.2929 19.2929L4.73653 3.73657L3.32231 5.15079L18.8787 20.7071L20.2929 19.2929Z" fill="currentColor"/>
</svg>
