<svg width="20" height="18" viewBox="0 0 20 18" fill="none" xmlns="http://www.w3.org/2000/svg">
<path d="M7 16V10C7 9.44772 6.55228 9 6 9H2C1.44772 9 1 9.44772 1 10V16C1 16.5523 1.44772 17 2 17M7 16C7 16.5523 6.55228 17 6 17H2M7 16C7 16.5523 7.44772 17 8 17H12C12.5523 17 13 16.5523 13 16M7 16V6C7 5.44772 7.44772 5 8 5H12C12.5523 5 13 5.44772 13 6V16M2 17H16M13 16C13 16.5523 13.4477 17 14 17H18C18.5523 17 19 16.5523 19 16V2C19 1.44772 18.5523 1 18 1H14C13.4477 1 13 1.44772 13 2V16Z" stroke="currentColor" stroke-width="var(--icon-stroke-width)" stroke-linecap="round" stroke-linejoin="round"/>
</svg>
