<svg width="20" height="20" viewBox="0 0 20 20" fill="none" xmlns="http://www.w3.org/2000/svg">
<path d="M7 8H7.01M13 8H13.01M7.5 13.25C7.82588 12.9174 8.21485 12.6532 8.64413 12.4728C9.07341 12.2924 9.53436 12.1995 10 12.1995C10.4656 12.1995 10.9266 12.2924 11.3559 12.4728C11.7852 12.6532 12.1741 12.9174 12.5 13.25M19 10C19 14.9706 14.9706 19 10 19C5.02944 19 1 14.9706 1 10C1 5.02944 5.02944 1 10 1C14.9706 1 19 5.02944 19 10Z" stroke="currentColor" stroke-width="var(--icon-stroke-width)" stroke-linecap="round" stroke-linejoin="round"/>
</svg>
