<svg width="20" height="20" viewBox="0 0 20 20" fill="none" xmlns="http://www.w3.org/2000/svg">
<path d="M4 6H8M4 6V12M4 6V6C2.34315 6 1 4.65685 1 3V1M8 6V12M8 6H12M8 12V19M8 12H4M4 19V12M12 6H16M12 6V12M16 6V12M16 6V6C17.6569 6 19 4.65685 19 3V1M16 12V19M16 12H12M12 19V12M7 2C7 2.55228 6.55228 3 6 3C5.44772 3 5 2.55228 5 2C5 1.44772 5.44772 1 6 1C6.55228 1 7 1.44772 7 2ZM15 2C15 2.55228 14.5523 3 14 3C13.4477 3 13 2.55228 13 2C13 1.44772 13.4477 1 14 1C14.5523 1 15 1.44772 15 2Z" stroke="#8197BB" stroke-width="2" stroke-linecap="round" stroke-linejoin="round"/>
</svg>
