<svg width="24" height="24" viewBox="0 0 24 24" fill="none" xmlns="http://www.w3.org/2000/svg">
<path d="M17 13C17.5523 13 18 12.5523 18 12C18 11.4477 17.5523 11 17 11V13ZM15 11C14.4477 11 14 11.4477 14 12C14 12.5523 14.4477 13 15 13V11ZM17 17C17.5523 17 18 16.5523 18 16C18 15.4477 17.5523 15 17 15V17ZM15 15C14.4477 15 14 15.4477 14 16C14 16.5523 14.4477 17 15 17V15ZM4 5H10V3H4V5ZM11 19H4V21H11V19ZM4 19H2C2 20.1046 2.89543 21 4 21V19ZM10 5H12C12 3.89543 11.1046 3 10 3V5ZM4 3C2.89543 3 2 3.89543 2 5H4V3ZM11 9H20V7H11V9ZM20 9V19H22V9H20ZM20 19H11V21H20V19ZM20 19V21C21.1046 21 22 20.1046 22 19H20ZM20 9H22C22 7.89543 21.1046 7 20 7V9ZM4 8V5H2V8H4ZM11 7H3V9H11V7ZM12 12V8H10V12H12ZM10 5V12H12V5H10ZM4 12V8H2V12H4ZM11 11H3V13H11V11ZM12 20V16H10V20H12ZM12 16V12H10V16H12ZM4 19V16H2V19H4ZM4 16V12H2V16H4ZM11 15H3V17H11V15ZM17 11H15V13H17V11ZM17 15H15V17H17V15Z" fill="currentColor"/>
</svg>
