<svg width="24" height="24" viewBox="0 0 24 24" fill="none" xmlns="http://www.w3.org/2000/svg">
<path d="M8 5.42078C8.60113 4.40788 9.69396 3.50003 11 3.50003H16.5C18 3.50003 19.3402 5.32288 19.5 6.00424L20.5 11.0027C20.5 11.533 20.2893 12.0416 19.9142 12.4165C19.5391 12.7915 19.0304 13.0021 18.5 13.0021H15.5V18.0006C15.5 18.5309 15.2893 19.0395 14.9142 19.4144C14.5391 19.7894 14.0304 20 13.5 20C12.9696 20 12.4609 19.7894 12.0858 19.4144C11.7107 19.0395 11.5 18.5309 11.5 18.0006V17.0009C11.5 15.9404 11.0786 14.9233 10.3284 14.1734C9.69711 13.5422 8.8765 13.1439 8 13.0335M4 3.00003H6C7.10457 3.00003 8 3.89546 8 5.00003V12C8 13.1046 7.10457 14 6 14H4C2.89543 14 2 13.1046 2 12V5.00003C2 3.89546 2.89543 3.00003 4 3.00003Z" stroke="currentColor" stroke-width="var(--icon-stroke-width)" stroke-linecap="round" stroke-linejoin="round"/>
</svg>
