<svg width="20" height="18" viewBox="0 0 20 18" fill="none" xmlns="http://www.w3.org/2000/svg">
<path d="M15 10C15.5523 10 16 9.55229 16 9C16 8.44772 15.5523 8 15 8V10ZM13 8C12.4477 8 12 8.44772 12 9C12 9.55229 12.4477 10 13 10V8ZM15 14C15.5523 14 16 13.5523 16 13C16 12.4477 15.5523 12 15 12V14ZM13 12C12.4477 12 12 12.4477 12 13C12 13.5523 12.4477 14 13 14V12ZM2 2H8V0H2V2ZM9 16H2V18H9V16ZM2 16H0C0 17.1046 0.895431 18 2 18V16ZM8 2H10C10 0.895431 9.10457 0 8 0V2ZM2 0C0.895431 0 0 0.895431 0 2H2V0ZM9 6H18V4H9V6ZM18 6V16H20V6H18ZM18 16H9V18H18V16ZM18 16V18C19.1046 18 20 17.1046 20 16H18ZM18 6H20C20 4.89543 19.1046 4 18 4V6ZM2 5V2H0V5H2ZM9 4H1V6H9V4ZM10 9V5H8V9H10ZM8 2V9H10V2H8ZM2 9V5H0V9H2ZM9 8H1V10H9V8ZM10 17V13H8V17H10ZM10 13V9H8V13H10ZM2 16V13H0V16H2ZM2 13V9H0V13H2ZM9 12H1V14H9V12ZM15 8H13V10H15V8ZM15 12H13V14H15V12Z" fill="currentColor"/>
</svg>
