<svg width="24" height="24" viewBox="0 0 24 24" fill="none" xmlns="http://www.w3.org/2000/svg">
<path d="M7 7.5C7 6.67157 6.32843 6 5.5 6C4.67157 6 4 6.67157 4 7.5V13.5C4 17.6421 7.35786 21 11.5 21C15.6421 21 19 17.6421 19 13.5V9.5C19 8.67157 18.3284 8 17.5 8C16.6716 8 16 8.67157 16 9.5M7 7.5V10M7 7.5V4.5C7 3.67157 7.67157 3 8.5 3C9.32843 3 10 3.67157 10 4.5M10 4.5V10M10 4.5V3.5C10 2.67157 10.6716 2 11.5 2C12.3284 2 13 2.67157 13 3.5V5.5M13 5.5C13 4.67157 13.6716 4 14.5 4C15.3284 4 16 4.67157 16 5.5V9.5M13 5.5V10M16 9.5V13C14.3431 13 13 14.3431 13 16" stroke="currentColor" stroke-width="var(--icon-stroke-width)" stroke-linecap="round" stroke-linejoin="round"/>
</svg>
