<svg width="21" height="19" viewBox="0 0 21 19" fill="none" xmlns="http://www.w3.org/2000/svg">
<path d="M9.32843 6.82667L10.0354 7.53389L9.32843 6.82667ZM11.0858 1.58561L10.3788 0.878397L10.3788 0.878397L11.0858 1.58561ZM14.5 7.99789H13.5C13.5 8.55018 13.9477 8.99789 14.5 8.99789V7.99789ZM19.5 9.99729L20.4806 10.1935C20.4935 10.1289 20.5 10.0632 20.5 9.99729H19.5ZM18.5 14.9958L19.4736 15.2241C19.4761 15.2134 19.4784 15.2027 19.4806 15.192L18.5 14.9958ZM7.87934 15.1011C7.59221 14.6294 6.97699 14.4797 6.50521 14.7668C6.03344 15.0539 5.88376 15.6692 6.17089 16.1409L7.87934 15.1011ZM6.89389 6.97195C6.34638 7.04442 5.96129 7.54701 6.03376 8.09452C6.10623 8.64203 6.60883 9.02713 7.15634 8.95466L6.89389 6.97195ZM10.0354 7.53389C10.9731 6.59645 11.5 5.32496 11.5 3.9991H9.5C9.5 4.79433 9.184 5.55705 8.62143 6.11946L10.0354 7.53389ZM11.5 3.9991V2.9994H9.5V3.9991H11.5ZM11.5 2.9994C11.5 2.73444 11.6053 2.48027 11.7928 2.29282L10.3788 0.878397C9.81614 1.44087 9.5 2.20381 9.5 2.9994H11.5ZM11.7928 2.29282C11.9803 2.10537 12.2347 2 12.5 2V0C11.7044 0 10.9414 0.315934 10.3788 0.878397L11.7928 2.29282ZM12.5 2C12.7653 2 13.0197 2.10537 13.2072 2.29282L14.6212 0.878397C14.0586 0.315934 13.2956 0 12.5 0V2ZM13.2072 2.29282C13.3947 2.48027 13.5 2.73444 13.5 2.9994H15.5C15.5 2.20381 15.1839 1.44087 14.6212 0.878397L13.2072 2.29282ZM13.5 2.9994V7.99789H15.5V2.9994H13.5ZM14.5 8.99789H17.5V6.99789H14.5V8.99789ZM17.5 8.99789C17.7653 8.99789 18.0197 9.10326 18.2072 9.29072L19.6212 7.87629C19.0586 7.31383 18.2956 6.99789 17.5 6.99789V8.99789ZM18.2072 9.29072C18.3947 9.47816 18.5 9.73233 18.5 9.99729H20.5C20.5 9.2017 20.1839 8.43876 19.6212 7.87629L18.2072 9.29072ZM18.5194 9.80112L17.5194 14.7996L19.4806 15.192L20.4806 10.1935L18.5194 9.80112ZM15.5 16.5H10V18.5H15.5V16.5ZM17.5264 14.7675C17.5283 14.7596 17.5206 14.7922 17.4841 14.8686C17.4502 14.9398 17.4004 15.0299 17.3337 15.1335C17.1998 15.3418 17.0153 15.5772 16.7966 15.7952C16.3276 16.2627 15.8591 16.5 15.5 16.5V18.5C16.6409 18.5 17.5925 17.8258 18.2086 17.2116C18.5324 16.8888 18.8067 16.5406 19.0158 16.2155C19.2127 15.9094 19.3958 15.556 19.4736 15.2241L17.5264 14.7675ZM10 16.5C9.18209 16.5 8.37745 15.9195 7.87934 15.1011L6.17089 16.1409C6.8851 17.3144 8.2418 18.5 10 18.5V16.5ZM7.15634 8.95466C8.24008 8.8112 9.25378 8.3153 10.0354 7.53389L8.62143 6.11946C8.15251 6.58823 7.54426 6.88586 6.89389 6.97195L7.15634 8.95466ZM3 8H5V6H3V8ZM6 9V16H8V9H6ZM5 17H3V19H5V17ZM2 16V9H0V16H2ZM3 17C2.44772 17 2 16.5523 2 16H0C0 17.6569 1.34315 19 3 19V17ZM6 16C6 16.5523 5.55228 17 5 17V19C6.65685 19 8 17.6569 8 16H6ZM5 8C5.55228 8 6 8.44772 6 9H8C8 7.34315 6.65685 6 5 6V8ZM3 6C1.34315 6 0 7.34315 0 9H2C2 8.44772 2.44772 8 3 8V6Z" fill="#8197BB"/>
</svg>
