<svg width="20" height="20" viewBox="0 0 20 20" fill="none" xmlns="http://www.w3.org/2000/svg">
<path d="M8.06087 8.23758L8.7327 8.97829H8.7327L8.06087 8.23758ZM12.9919 8H11.9919C11.9919 8.55228 12.4397 9 12.9919 9V8ZM17 9.45411L17.9859 9.62138C17.9953 9.56612 18 9.51016 18 9.45411H17ZM16.1984 14.1788L17.1666 14.429C17.1737 14.4016 17.1796 14.3739 17.1843 14.346L16.1984 14.1788ZM7.83045 14.0764C7.52278 13.6177 6.90155 13.4954 6.44291 13.803C5.98426 14.1107 5.86188 14.7319 6.16955 15.1906L7.83045 14.0764ZM6.44368 8.0426C5.91492 8.20208 5.61556 8.76 5.77503 9.28876C5.93451 9.81752 6.49244 10.1169 7.02119 9.9574L6.44368 8.0426ZM8.7327 8.97829C9.57718 8.21235 10 7.00377 10 6H8.00002C8.00002 6.53885 7.74722 7.17202 7.38905 7.49687L8.7327 8.97829ZM12.9919 9H15.3968V7H12.9919V9ZM15.3968 9C15.5866 9 15.7513 9.06927 15.8586 9.16661L17.2022 7.68518C16.7082 7.23713 16.0574 7 15.3968 7V9ZM15.8586 9.16661C15.9627 9.26101 16 9.36692 16 9.45411H18C18 8.76999 17.6995 8.13619 17.2022 7.68518L15.8586 9.16661ZM16.0141 9.28683L15.2125 14.0115L17.1843 14.346L17.9859 9.62138L16.0141 9.28683ZM13.7936 15H9.3847V17H13.7936V15ZM15.2302 13.9285C15.243 13.8788 15.2327 13.9377 15.1219 14.094C15.0261 14.2291 14.8907 14.3864 14.728 14.5336C14.3777 14.8504 14.0395 15 13.7936 15V17C14.75 17 15.5502 16.4867 16.0697 16.0168C16.3419 15.7706 16.5742 15.5036 16.7535 15.2507C16.9177 15.0191 17.0897 14.7265 17.1666 14.429L15.2302 13.9285ZM9.3847 15C8.7757 15 8.18726 14.6083 7.83045 14.0764L6.16955 15.1906C6.78454 16.1073 7.92866 17 9.3847 17V15ZM11.9919 6V8H13.9919V6H11.9919ZM11 5C11.5046 5 11.7026 5.13427 11.7841 5.21962C11.8736 5.31335 11.9919 5.52601 11.9919 6H13.9919C13.9919 5.21812 13.7962 4.43078 13.2307 3.83848C12.6571 3.2378 11.8592 3 11 3V5ZM10 6C10 5.42977 10.1138 5.24434 10.1674 5.18665C10.2066 5.14448 10.3724 5 11 5V3C10.1207 3 9.28654 3.19664 8.70246 3.82504C8.13281 4.43791 8.00002 5.25249 8.00002 6H10ZM7.02119 9.9574C7.56698 9.79279 8.2581 9.40875 8.7327 8.97829L7.38905 7.49687C7.13191 7.7301 6.70175 7.96476 6.44368 8.0426L7.02119 9.9574ZM6 10V14H8V10H6ZM4 14V10H2V14H4ZM5 15C4.44772 15 4 14.5523 4 14H2C2 15.6569 3.34315 17 5 17V15ZM6 14C6 14.5523 5.55228 15 5 15V17C6.65685 17 8 15.6569 8 14H6ZM5 9C5.55228 9 6 9.44772 6 10H8C8 8.34315 6.65685 7 5 7V9ZM5 7C3.34315 7 2 8.34315 2 10H4C4 9.44772 4.44772 9 5 9V7Z" fill="#8197BB"/>
</svg>
