<svg width="20" height="18" viewBox="0 0 20 18" fill="none" xmlns="http://www.w3.org/2000/svg">
<path d="M16 4.99995C16.7956 4.99995 17.5587 5.31602 18.1213 5.87863C18.6839 6.44124 19 7.2043 19 7.99995C19 8.7956 18.6839 9.55866 18.1213 10.1213C17.5587 10.6839 16.7956 10.9999 16 10.9999M8 4.99995V15.9999C8 16.2652 7.89464 16.5195 7.70711 16.7071C7.51957 16.8946 7.26522 16.9999 7 16.9999H6C5.73478 16.9999 5.48043 16.8946 5.29289 16.7071C5.10536 16.5195 5 16.2652 5 15.9999V10.9999M10 4.99995L14.524 1.22995C14.6555 1.12046 14.8154 1.0507 14.9851 1.02885C15.1548 1.00701 15.3271 1.03398 15.482 1.1066C15.6369 1.17922 15.7679 1.29449 15.8597 1.4389C15.9514 1.5833 16.0001 1.75087 16 1.92195V14.0779C16.0001 14.249 15.9514 14.4166 15.8597 14.561C15.7679 14.7054 15.6369 14.8207 15.482 14.8933C15.3271 14.9659 15.1548 14.9929 14.9851 14.971C14.8154 14.9492 14.6555 14.8794 14.524 14.7699L10 10.9999H2C1.73478 10.9999 1.48043 10.8946 1.29289 10.7071C1.10536 10.5195 1 10.2652 1 9.99995V5.99995C1 5.73473 1.10536 5.48038 1.29289 5.29284C1.48043 5.1053 1.73478 4.99995 2 4.99995H10Z" stroke="#8197BB" stroke-width="2" stroke-linecap="round" stroke-linejoin="round"/>
</svg>
