<svg width="24" height="24" viewBox="0 0 24 24" fill="none" xmlns="http://www.w3.org/2000/svg">
<path d="M3.08619 20.5939C2.86188 21.0985 3.08918 21.6895 3.59386 21.9138C4.09855 22.1381 4.68951 21.9108 4.91381 21.4061L3.08619 20.5939ZM4.88889 19L3.97508 18.5939L4.88889 19ZM8 12L8.91381 11.5939C8.75331 11.2327 8.39519 11 8 11C7.60481 11 7.24669 11.2327 7.08619 11.5939L8 12ZM11.0862 21.4061C11.3105 21.9108 11.9015 22.1381 12.4061 21.9138C12.9108 21.6895 13.1381 21.0985 12.9138 20.5939L11.0862 21.4061ZM13 2C12.4477 2 12 2.44772 12 3C12 3.55228 12.4477 4 13 4V2ZM20 3L20.7894 3.61394C21.0238 3.31246 21.0661 2.90375 20.8983 2.56065C20.7305 2.21755 20.3819 2 20 2V3ZM13 12L12.2106 11.3861C11.9762 11.6875 11.9339 12.0963 12.1017 12.4394C12.2695 12.7824 12.6181 13 13 13V12ZM20 13C20.5523 13 21 12.5523 21 12C21 11.4477 20.5523 11 20 11V13ZM4.91381 21.4061L5.8027 19.4061L3.97508 18.5939L3.08619 20.5939L4.91381 21.4061ZM5.8027 19.4061L8.91381 12.4061L7.08619 11.5939L3.97508 18.5939L5.8027 19.4061ZM7.08619 12.4061L10.1973 19.4061L12.0249 18.5939L8.91381 11.5939L7.08619 12.4061ZM10.1973 19.4061L11.0862 21.4061L12.9138 20.5939L12.0249 18.5939L10.1973 19.4061ZM4.88889 20H11.1111V18H4.88889V20ZM13 4H20V2H13V4ZM19.2106 2.38606L12.2106 11.3861L13.7894 12.6139L20.7894 3.61394L19.2106 2.38606ZM13 13H20V11H13V13Z" fill="currentColor"/>
</svg>
