<svg width="24" height="24" viewBox="0 0 24 24" fill="none" xmlns="http://www.w3.org/2000/svg">
<path d="M9.99989 14C10.3258 14.3326 10.7147 14.5968 11.144 14.7772C11.5733 14.9576 12.0343 15.0505 12.4999 15.0505C12.9655 15.0505 13.4265 14.9576 13.8558 14.7772C14.285 14.5968 14.674 14.3326 14.9999 14L18.9999 10C19.6629 9.33697 20.0354 8.43769 20.0354 7.50001C20.0354 6.56233 19.6629 5.66305 18.9999 5.00001C18.3368 4.33697 17.4376 3.96448 16.4999 3.96448C15.5622 3.96448 14.6629 4.33697 13.9999 5.00001L13.4999 5.50001M13.9999 10C13.674 9.66741 13.285 9.40318 12.8558 9.2228C12.4265 9.04241 11.9655 8.9495 11.4999 8.9495C11.0343 8.9495 10.5733 9.04241 10.144 9.2228C9.71474 9.40318 9.32577 9.66741 8.99989 10L4.99989 14C4.33685 14.6631 3.96436 15.5623 3.96436 16.5C3.96436 17.4377 4.33685 18.337 4.99989 19C5.66293 19.6631 6.56221 20.0355 7.49989 20.0355C8.43757 20.0355 9.33685 19.6631 9.99989 19L10.4999 18.5" stroke="currentColor" stroke-width="var(--icon-stroke-width)" stroke-linecap="round" stroke-linejoin="round"/>
</svg>
